<svg width="215" height="67" viewBox="0 0 215 67" fill="none" xmlns="http://www.w3.org/2000/svg">
<path d="M59.9003 3.33657C59.7673 3.74782 59.4068 4.17953 59.0816 4.47818C58.98 4.57197 58.8543 4.42228 58.777 4.48289C58.6261 4.60153 58.6212 4.79031 58.4596 4.90025C58.4052 4.93623 58.1895 4.72795 58.1382 4.76901C57.8594 4.99505 57.7648 5.30726 57.5416 5.57048C56.4411 6.86751 55.5253 8.23679 54.5645 9.63784C54.2476 10.1005 53.6802 10.5561 53.4922 11.1136C53.4704 11.1789 53.7118 11.2716 53.7236 11.2932C53.9024 11.6284 53.489 11.313 53.3641 11.3926C52.8696 11.7089 52.5609 12.1977 52.3956 12.682C52.3262 12.888 52.8724 12.9561 52.5186 12.9998C52.4945 13.0031 52.2865 12.8209 52.2322 12.8571C52.1097 12.9395 52.0264 13.1812 51.9567 13.2593C51.8211 13.409 51.8066 13.4396 51.7103 13.6005C51.5766 13.8195 51.3078 14.0161 51.2243 14.2843C51.2071 14.342 51.4867 14.4136 51.4812 14.5181C51.4756 14.6224 51.3317 14.8251 51.233 14.8652C51.1344 14.905 50.9628 14.7651 50.912 14.7529C50.4848 14.6477 50.8492 15.1882 50.8434 15.2273C50.723 15.9311 50.145 16.2668 49.8322 16.8125C49.5958 17.2263 49.4339 17.7288 49.1948 18.1143C48.9087 18.5738 48.5467 18.9012 48.308 19.3687C48.2824 19.4179 48.5982 19.5245 48.5677 19.585C48.2391 20.2331 47.854 20.8322 47.303 21.3489C47.2477 21.4003 47.045 21.1768 46.9749 21.2196C46.5518 21.4829 45.7117 21.8086 46.6657 22.6571C46.4748 22.8918 46.2521 23.179 45.8994 23.2877C45.6729 23.357 45.485 23.056 45.4953 23.3063C45.4973 23.3626 45.7658 23.4448 45.7509 23.5188C45.6874 23.8312 45.4493 24.0679 45.4222 24.3998C45.4175 24.4673 45.6387 24.5748 45.6684 24.6117C45.9068 24.9154 45.274 24.8303 45.2107 24.8544C44.7345 25.0411 44.7003 25.3549 44.5077 25.6758C44.463 25.7499 44.7998 25.8248 44.7672 25.902C44.594 26.2998 44.35 26.6696 44.0124 26.9657C43.9369 27.0307 43.736 26.8165 43.6874 26.8404C43.4763 26.9475 43.9151 27.2485 43.722 27.3555C43.6819 27.3784 43.4843 27.2398 43.4578 27.233C43.0417 27.1261 43.5028 27.5026 43.4996 27.5343C43.4683 27.9463 42.8179 27.8495 42.7164 28.2026C42.7048 28.2451 43.0166 28.3122 42.9679 28.4225C42.6423 29.1626 42.1494 29.8591 41.5454 30.4289C41.4522 30.5171 41.297 30.328 41.2687 30.3208C40.8239 30.2128 41.2966 30.5741 41.2954 30.6211C41.2756 30.9792 40.6991 30.9932 41.2035 31.5268C40.3259 32.5783 40.009 33.9378 38.8054 34.7907C38.7906 34.802 38.5528 34.6326 38.5245 34.6558C38.1815 34.9319 38.6133 35.0849 38.9627 35.5891C39.051 35.7146 38.3682 35.5691 38.3165 35.5615C38.1266 35.5318 37.7845 35.259 37.743 35.2616C37.4131 35.2896 38.6726 35.9643 38.5509 36.1816C38.545 36.1872 38.3319 36.0298 38.2989 36.0351C38.1955 36.0514 38.2551 36.1586 38.1453 36.1692C37.8914 36.1935 37.2639 35.8932 37.5048 36.2892C37.5366 36.3395 38.264 36.6991 38.1211 36.8754C38.0633 36.9458 37.8842 37.2934 37.7857 37.3618C37.687 37.4305 37.4956 37.238 37.4819 37.2392C37.0348 37.3307 36.965 37.1625 36.446 37.0431C35.9287 36.9245 37.0088 37.4817 37.0976 37.6008C37.1858 37.7199 36.8318 37.7692 36.7197 37.7668C36.6075 37.7645 36.4947 37.6261 36.4229 37.6396C36.3164 37.6606 36.2816 37.693 36.2928 37.7328C36.3296 37.8725 36.9094 38.0944 36.9999 38.2383C37.2777 38.6769 36.3985 38.4039 36.2136 38.5543C36.1637 38.5949 36.3667 38.6522 36.3575 38.708C36.3204 38.9252 36.008 38.9084 36.1159 39.2446C36.1332 39.2999 36.5117 39.7337 36.1037 39.6497C36.045 39.6374 35.8732 39.4845 35.7858 39.5382C35.6537 39.6205 35.49 39.8145 35.4854 39.9777C35.4819 40.0985 35.865 40.1703 35.6991 40.2325C35.6253 40.2599 35.4897 40.0582 35.3667 40.1184C35.2453 40.176 35.1123 40.4359 35.0655 40.536C35.019 40.6359 35.2937 40.719 35.3059 40.7359C35.3746 40.8355 35.3921 41.0837 35.383 41.0994C34.9601 41.9362 34.1306 42.4638 33.8311 43.3379C33.8069 43.407 34.0896 43.5067 34.0886 43.5187C34.0794 43.794 33.482 43.2468 33.1688 43.2708C33.7077 43.5368 33.5637 43.5736 33.5401 43.7542C33.5293 43.8414 33.7547 43.9136 33.772 43.9316C34.0222 44.2103 33.5803 44.068 33.4877 44.0429C33.147 43.9508 33.4607 44.2228 33.2328 44.1615C33.0064 44.101 32.7707 43.8281 32.6959 43.9744C32.8628 44.1175 33.4141 44.2795 33.4347 44.432C33.5082 45.0167 32.7038 45.5751 32.4794 45.8936C32.2602 46.2022 32.2338 46.3344 32.061 46.4907C31.7495 46.7715 32.1829 46.8462 32.233 47.1547C32.2829 47.4636 31.4382 46.87 31.2273 46.7966C31.0169 46.7226 31.1986 46.8634 31.0713 46.8442C30.9437 46.8257 30.8574 46.6701 30.7679 46.7401C30.6781 46.8108 30.89 47.2433 31.076 47.384C31.469 47.6839 31.9818 47.8128 31.6924 47.9698C31.6755 47.9786 31.4625 47.8055 31.4099 47.8456C31.0037 48.1612 30.7542 48.5962 30.3688 48.9227C30.3148 48.9686 30.0791 48.7739 30.0447 48.799C29.6866 49.0575 30.2001 49.1712 30.5903 49.6302C29.9568 49.2301 29.4958 49.1208 29.35 49.3799C29.2618 49.536 29.5626 49.6663 29.709 49.8788C29.753 49.943 29.4953 49.9474 29.6192 50.041C30.0233 50.3483 30.5753 50.51 30.2289 50.6775C30.213 50.6843 29.9927 50.5145 29.9555 50.5478C29.715 50.7605 30.1564 51.0477 30.0543 51.3653C29.9726 51.6174 29.4702 51.8637 29.2812 52.0949C28.5501 51.6802 28.5841 52.0137 29.0335 52.3966C28.9187 52.5522 28.8462 52.7469 28.6849 52.8683C28.6297 52.91 28.4389 52.7533 28.4121 52.7472C27.9933 52.649 28.4419 53.0002 28.4404 53.0473C28.4044 53.5422 27.8522 53.6418 27.9953 54.221C28.0006 54.2416 28.4905 54.5602 28.0653 54.4416C28.0363 54.4329 27.8797 54.1761 27.7595 54.3384C27.7426 54.3612 27.719 54.384 27.6911 54.4075C27.5201 54.5513 27.189 54.7162 27.2633 55.0415C27.284 55.1328 27.5994 55.5261 27.2117 55.4497C27.1593 55.4389 27.0271 55.3343 26.9339 55.3079C26.6365 55.2247 27.1146 55.5738 26.6356 55.3952C26.1565 55.2168 25.7303 55.1921 25.8757 55.6112C25.8796 55.6239 26.2406 55.9287 26.1875 55.9992C26.1025 56.1113 25.9133 56.2279 25.8375 56.3526C25.8012 56.4126 26.0702 56.5309 26.0682 56.544C25.9508 57.0305 25.55 57.1737 25.1794 57.5344C25.1109 57.6003 25.2952 58.0407 24.9346 58.018C24.5398 57.9928 23.4642 57.0358 23.4985 57.5965C23.5123 57.8204 24.8839 59.0233 23.9236 58.7698C23.7594 59.4265 23.0317 59.638 22.9405 60.3492C22.9362 60.3812 23.2984 60.7444 23.2542 60.7957C23.1878 60.8714 22.9628 60.7812 22.909 60.831C22.6791 61.0354 22.6861 61.376 22.4938 61.5935C22.421 61.6765 22.244 61.5043 22.1572 61.6031C22.0711 61.7014 22.2826 61.9585 22.0531 62.0132C21.879 62.0538 21.2675 61.7801 21.1021 61.8798C21.6248 62.2625 21.5435 62.3533 21.5561 62.6289C21.5588 62.6822 21.768 62.7773 21.7787 62.8093C21.8263 62.9422 21.6306 62.8943 21.6891 63.0295C21.703 63.0623 21.8821 63.1922 21.9035 63.2263C22.0928 63.521 21.5643 63.4031 21.4726 63.382C21.1243 63.3024 21.3194 63.5235 21.1515 63.5346C20.9837 63.5454 20.9465 63.3207 20.8094 63.3759C20.5261 63.4899 20.3592 63.7803 20.1969 63.9857C20.133 64.0689 20.4137 64.185 20.4101 64.201C20.342 64.4216 19.9603 64.4115 20.3635 64.8565C19.0469 64.0803 20.4054 65.0492 19.9763 65.1196C19.9419 65.1248 19.3437 64.7243 19.3139 64.5864C19.2844 64.4482 19.5485 64.4681 19.4932 64.2651C19.4803 64.2173 19.0402 63.6774 19.0212 63.6341C18.8739 63.2949 19.7578 63.9068 19.8115 63.9335C20.3931 64.2171 19.9331 63.6155 19.9255 63.5406C19.8927 63.1951 20.1429 63.1077 20.1378 62.8348C20.135 62.6578 19.5725 62.2342 19.6547 62.1573C19.9282 61.9002 20.8006 62.3693 20.3116 61.5901C20.2074 61.4236 19.5384 61.0364 20.1856 61.1717C20.2263 61.1804 20.792 61.3408 20.5729 61.0449C20.5453 61.0076 20.3623 60.8779 20.358 60.8516C20.3325 60.6773 20.5271 60.712 20.5369 60.5503C20.5464 60.3892 20.5389 60.179 20.6912 60.0952C20.7826 60.0446 21.1947 60.1852 21.3045 60.2069C21.6197 60.2711 21.3027 59.8817 21.6408 60.021C21.9808 60.1608 22.3362 60.6027 22.6476 60.5619C22.1748 60.2214 21.695 59.8639 21.222 59.5179C21.5019 59.1536 21.9139 58.8898 22.1534 58.495C22.1825 58.4459 21.8912 58.3169 21.9156 58.2597C22.02 58.0193 22.3308 57.9596 22.4072 57.6881C22.4647 57.4782 22.3163 57.1047 22.3657 56.8805C22.9933 57.1414 22.9825 56.7494 23.1611 56.5892C23.2234 56.533 23.369 56.6355 23.4494 56.6191C23.7493 56.5539 23.2004 56.3164 23.1557 56.2155C22.9645 55.7853 24.0933 56.4957 24.2316 56.222C24.2394 56.2077 23.7491 55.6568 23.7262 55.6104C23.576 55.3104 23.9496 55.7206 24.0518 55.6587C24.2381 55.5461 24.4554 55.5214 24.4027 55.2159C24.3867 55.1258 24.0977 54.754 24.4566 54.8269C24.5036 54.8364 24.6976 54.9694 24.7166 54.965C25.044 54.8747 24.4213 54.4777 24.2836 54.2258C24.1461 53.9739 24.6939 54.0565 24.8425 54.0952C25.2275 54.1945 24.9338 54.2567 24.9622 54.2815C25.3007 54.578 25.3201 54.4012 25.4165 54.3157C26.0428 54.6792 26.0964 54.5083 25.5139 54.2256C25.4501 54.195 25.4577 54.3119 25.4165 54.3157C24.868 53.8518 24.8867 53.647 25.5623 53.8124C25.8789 53.8898 26.1417 54.1568 26.182 53.8324C26.2003 53.6855 25.7458 53.4742 25.6899 53.3028C25.6784 53.2675 25.6726 53.2349 25.6717 53.2046C25.6624 52.8988 26.1479 52.8209 26.2187 52.5667C26.2468 52.4657 25.9613 52.4138 25.9723 52.3401C26.0004 52.1445 26.2588 52.1064 26.2598 51.8939C26.2596 51.8745 25.9916 51.7678 26.017 51.7162C26.2037 51.3238 26.5504 51.0821 26.7771 50.6869C26.8869 50.4954 26.9406 50.074 27.0791 49.8882C27.3168 49.5675 27.9184 49.333 27.9922 48.9865C28.0422 48.7596 27.7686 48.6647 27.6429 48.4884C27.3976 48.1497 28.1498 48.1803 28.2615 48.1938C28.2652 48.1942 28.2335 48.394 28.411 48.3742C28.7077 48.4681 28.2616 48.1963 28.2615 48.1938C28.3336 48.2027 28.5763 47.8906 28.5629 47.8005C28.5562 47.7502 28.3072 47.6416 28.3083 47.6178C28.3416 47.0471 28.5226 46.5668 28.8838 46.1642C28.8929 46.1588 29.1528 46.3147 29.171 46.3001C29.4324 46.0992 29.2 45.7501 29.1245 45.4274C29.0513 45.1004 29.2087 44.9641 29.7365 45.0808C29.7697 44.8817 30.0995 44.7551 30.2962 44.6846C30.4932 44.6137 29.9859 44.3131 29.9822 44.2954C29.8565 43.7448 30.2744 43.6818 30.5301 43.3215C30.6556 43.1449 30.7775 42.7423 30.8322 42.5075C30.8754 42.3198 31.0457 42.296 31.0482 42.1072C31.0486 42.0819 30.8075 41.976 30.8019 41.9652C30.6155 41.6515 31.1356 42.0374 31.2546 42.0586C31.6867 42.1367 31.9254 42.1625 31.8651 41.8644C31.8517 41.7954 31.1182 41.2122 31.1193 41.0977C31.1223 40.9496 31.3887 41.1524 31.3849 40.9925C31.3846 40.9794 31.2054 40.8815 31.2528 40.8138C31.4717 40.4961 31.7846 40.1737 31.9607 39.8117C31.9858 39.762 31.6676 39.6682 31.6993 39.5937C31.8514 39.2383 32.0545 38.8955 32.3683 38.6417C32.4448 38.5827 32.6163 38.7411 32.6845 38.7569C33.0982 38.8511 32.6625 38.4159 32.6663 38.3857C32.7459 37.6553 33.464 37.4667 33.5699 36.7533C33.5747 36.7139 33.1609 36.1529 33.6998 36.3045C33.7069 36.3064 33.7337 36.3141 33.7701 36.3231C33.9187 36.361 34.228 36.4221 34.0043 36.195C33.9868 36.1774 33.6985 36.1056 33.7905 36.0009C33.8825 35.8962 33.8234 35.6097 34.1917 35.597C34.3081 35.5922 34.8618 35.7405 34.5615 35.3706C34.54 35.3458 33.8008 34.6169 34.4516 34.8688C34.5587 34.9104 35.1877 35.2834 34.9659 34.913C34.9226 34.8416 34.7439 34.8267 34.7081 34.6825C34.6537 34.4591 34.9272 34.3721 34.7426 34.0359C34.7096 33.9771 34.3506 33.6032 34.7381 33.6826C34.7988 33.695 34.9938 33.8461 35.049 33.8039C35.3147 33.599 35.3216 33.2543 35.6207 33.0678C35.7259 33.0022 36.0421 33.2446 36.1901 33.1976C36.3386 33.1496 36.5387 33.002 36.439 32.8118C36.3397 32.6209 35.729 32.4234 35.7719 32.2451C35.9621 31.4644 36.6591 30.9821 37.0832 30.3438C37.1464 30.2488 36.904 30.22 36.9832 30.0717C37.2769 29.5201 37.6212 28.4873 38.3002 28.261C38.8459 28.0764 38.8314 28.6915 39.1296 28.4826C39.2728 28.3813 38.723 27.8693 38.7221 27.8243C38.7042 27.3834 39.1126 27.3208 39.1938 26.9776C39.2105 26.9067 38.9191 26.8195 38.9362 26.7608C38.9924 26.5583 39.2126 26.4393 39.2865 26.2608C39.3192 26.1802 39.1148 26.0818 39.1694 26.0214C39.2977 25.8756 39.4641 25.776 39.741 25.7188C39.7662 25.7136 39.9538 25.9529 40.0332 25.8349C40.1622 25.6415 40.482 25.5035 40.4249 25.1678C40.4071 25.0679 39.9594 24.8088 40.3528 24.8402C40.4351 24.8466 40.952 25.1939 40.5833 24.7575C40.5221 24.6848 40.0577 24.0386 40.5416 24.1324C40.6691 24.1566 41.1639 24.3153 41.141 24.1944C41.1363 24.1771 40.8698 24.0833 40.8848 24.0025C40.9416 23.7205 41.1108 23.4844 41.1753 23.1964C41.1918 23.1198 40.887 23.0735 40.9195 22.9639C41.0083 22.6623 41.2628 22.3652 41.4913 22.1473C41.576 22.0673 41.7443 22.2525 41.7708 22.2584C42.2016 22.3544 41.746 22.005 41.7384 21.9515C41.6985 21.6215 42.0317 21.5776 42.0933 21.3279C42.1109 21.2593 41.8514 21.1664 41.8372 21.1426C41.7023 20.9026 42.0728 21.2361 42.1638 21.1853C42.4205 21.0431 42.5398 20.7912 42.6347 20.556C42.6694 20.4692 42.3447 20.4029 42.379 20.3268C42.5765 19.8734 42.8588 19.4417 43.2473 19.1132C43.3212 19.0513 43.5029 19.2212 43.5603 19.2324C43.9607 19.3125 43.5978 18.8841 43.576 18.8209C43.4762 18.5335 43.7015 18.5713 43.7539 18.3998C44.0081 17.5573 44.6599 16.7076 45.1417 16.0454C45.7651 15.1874 46.3742 14.5907 46.8262 13.6853C46.855 13.6282 46.5436 13.5232 46.5649 13.4719C46.852 12.8172 47.3131 12.2688 47.5881 11.6046C47.6113 11.5502 47.3043 11.471 47.3326 11.3786C47.3887 11.1881 47.5256 10.9837 47.7076 10.8632C47.7957 10.8044 47.9593 11.0456 48.0433 10.9837C48.2396 10.8399 48.3777 10.6438 48.4497 10.4207C48.4797 10.3255 48.1355 10.297 48.1957 10.1853C48.6007 9.42013 48.9771 8.65918 49.7631 8.10594C49.817 8.06803 50.3934 8.33972 50.3514 8.16872C50.2035 8.07241 50.0236 7.96932 49.8625 7.87162C50.4029 6.731 51.2141 5.76475 51.8739 4.68898C51.9016 4.64368 51.5643 4.55504 51.6164 4.46648C51.9178 3.95396 52.1268 3.40508 52.7203 3.04543C52.7788 3.00944 53.2761 3.33208 53.2875 3.13312C53.289 3.09776 53.3547 2.82599 53.278 2.70168C53.2659 2.68384 53.0022 2.58818 53.0384 2.50927C53.2533 2.05278 53.5705 1.62906 53.9674 1.27894C54.0319 1.22272 54.2437 1.44441 54.2919 1.40564C54.6316 1.12937 54.6599 0.632705 55.0865 0.427797C55.373 0.291201 55.7651 0.629213 56.2682 0.75904C56.3392 0.777314 56.4298 0.642657 56.6863 0.780964C57.3315 1.12837 57.987 1.59709 58.6794 1.95937C58.8284 2.03751 58.7799 1.75917 59.0677 2.07345C59.0868 2.09481 59.1251 2.29839 59.2251 2.40082C59.2942 2.4718 59.5751 2.57775 59.6533 2.68637C59.7314 2.79492 59.4861 2.72318 59.5647 2.8738C59.6448 3.02527 59.9568 3.15897 59.9003 3.33657ZM31.1782 44.3652C31.4962 44.3726 30.5956 43.8591 30.7385 44.1156C30.7465 44.1286 31.1624 44.3651 31.1782 44.3652ZM22.5554 59.3354C23.0377 59.4414 22.5565 58.9547 22.191 58.863C21.8266 58.7703 22.4091 59.3033 22.5554 59.3354ZM21.7167 61.1164C22.1378 61.1453 20.957 60.2694 21.0647 60.6316C21.0706 60.6524 21.6922 61.1147 21.7167 61.1164ZM56.0697 1.38839C56.0826 1.39355 56.1524 1.29945 56.142 1.29022C55.8878 1.07204 55.7485 1.26032 56.0697 1.38839ZM20.889 62.8983C21.0906 62.9588 21.0197 62.6645 20.7694 62.589C20.5681 62.5282 20.6383 62.823 20.889 62.8983ZM35.7688 38.3132C35.7834 38.3187 35.8358 38.2533 35.7587 38.2122C35.5104 38.0803 35.5237 38.2193 35.7688 38.3132ZM18.9649 65.5625C19.2965 65.2056 20.4512 65.6844 20.0254 66.0321C19.9484 66.0949 19.8367 65.6353 19.6759 65.6691C19.3826 65.7312 19.9092 66.3016 19.4441 66.244C19.3595 66.2328 18.9439 65.581 18.964 65.5608C18.9643 65.5613 18.9646 65.5619 18.9649 65.5625ZM32.3123 44.8856C32.3256 44.8897 32.3929 44.793 32.3823 44.784C32.1234 44.5712 31.9877 44.766 32.3123 44.8856ZM38.7119 34.3798C38.7405 34.3885 38.8946 34.1712 38.8756 34.1501C38.4751 33.765 38.1618 34.2041 38.7119 34.3798ZM29.2594 52.088C29.4862 52.3608 29.4464 52.5114 29.0341 52.3963C29.1154 52.2968 29.1795 52.1892 29.2594 52.088Z" fill="black"/>
<path d="M2.48573 36.8348C3.07241 36.5724 3.73747 36.5193 4.26503 36.5351C4.4345 36.539 4.39455 36.7363 4.50551 36.749C4.72201 36.7738 4.90368 36.6417 5.11892 36.6822C5.19268 36.696 5.16999 36.9986 5.24604 37.0065C5.6604 37.0486 6.00146 36.9009 6.40387 36.8803C8.38226 36.7817 10.2238 36.5337 12.1837 36.2906C12.8063 36.2149 13.6267 36.3268 14.2633 36.0882C14.3386 36.0599 14.2445 35.8178 14.2554 35.7943C14.4279 35.4335 14.4421 35.9557 14.6014 35.9951C14.9451 36.0811 15.3028 36.0887 15.6544 36.0429C15.9255 36.0085 16.1919 35.9382 16.4403 35.8462C16.6755 35.7585 16.3373 35.306 16.636 35.5395C16.6567 35.5552 16.6447 35.8334 16.7172 35.8492C16.8861 35.8836 17.1531 35.7841 17.2719 35.7837C17.5008 35.7842 17.5372 35.7746 17.7498 35.7379C18.0418 35.6898 18.4176 35.7566 18.7084 35.6397C18.7714 35.6138 18.6334 35.3567 18.7294 35.2906C18.8252 35.2247 19.1092 35.1956 19.2165 35.2422C19.3236 35.2889 19.3233 35.5113 19.3493 35.5574C19.565 35.9472 19.7882 35.3099 19.8226 35.2887C20.5211 34.9075 21.2527 35.1107 21.953 34.9796C22.4968 34.8772 23.0525 34.6622 23.5677 34.5821C24.1895 34.4863 24.7297 34.5396 25.3207 34.404C25.3832 34.39 25.25 34.0822 25.3263 34.0644C26.1478 33.8739 26.9441 33.7632 27.8044 33.829C27.8891 33.8362 27.8372 34.1376 27.9249 34.1617C28.4596 34.3029 29.3552 34.7141 29.4257 33.4305C29.7684 33.417 30.1858 33.3915 30.5338 33.5836C30.7581 33.7072 30.6251 34.0496 30.8409 33.8742C30.8896 33.835 30.7697 33.5787 30.8466 33.5403C31.1733 33.3782 31.555 33.3986 31.8661 33.1975C31.9291 33.156 31.8661 32.9182 31.8775 32.8711C31.9755 32.4893 32.3543 33.0211 32.4215 33.0525C32.9329 33.2843 33.2367 33.1003 33.6567 33.0311C33.7543 33.0152 33.5798 32.7121 33.6716 32.6852C34.1472 32.5498 34.663 32.4839 35.1606 32.5412C35.2722 32.5547 35.2258 32.8486 35.2817 32.8691C35.5276 32.9563 35.4813 32.4257 35.7158 32.4991C35.7651 32.514 35.7831 32.755 35.7961 32.7794C35.9996 33.1633 36.0057 32.5654 36.0365 32.5465C36.4244 32.2953 36.8036 32.8488 37.191 32.6895C37.2373 32.6699 37.0735 32.3908 37.2071 32.3537C38.0982 32.1049 39.0718 32.0113 40.0134 32.086C40.1598 32.0972 40.1013 32.3401 40.1152 32.3662C40.3378 32.7727 40.3242 32.1758 40.3658 32.1457C40.6957 31.9227 41.1194 32.3477 41.2367 31.6123C42.8011 31.5733 44.2425 30.9082 45.8624 31.2508C45.8829 31.2544 45.901 31.5463 45.9415 31.5524C46.4308 31.6284 46.2618 31.2006 46.467 30.6019C46.5188 30.4515 46.8725 31.0641 46.9019 31.1084C47.0096 31.2716 47.0095 31.7108 47.041 31.7404C47.2988 31.9714 47.0073 30.5726 47.2882 30.5206C47.2974 30.5213 47.3079 30.7867 47.3362 30.8081C47.4243 30.8754 47.4781 30.7593 47.566 30.8352C47.7679 31.0111 47.9507 31.6833 48.1292 31.2398C48.1516 31.1824 47.9569 30.3943 48.2154 30.3858C48.3187 30.3831 48.7597 30.288 48.8932 30.3169C49.0267 30.3458 48.9887 30.6182 48.9996 30.6277C49.3958 30.9061 49.295 31.0701 49.5544 31.5422C49.8133 32.0125 49.5478 30.8263 49.5914 30.6804C49.6352 30.535 49.9307 30.7704 50.0096 30.8566C50.0879 30.943 50.0424 31.12 50.1063 31.1653C50.5284 31.4603 50.1537 30.5436 50.2362 30.3325C50.43 29.8328 50.8074 30.6794 51.0753 30.7199C51.1478 30.7309 51.0551 30.5393 51.1124 30.5093C51.3397 30.393 51.5338 30.6432 51.7612 30.3394C51.7987 30.2898 51.9234 29.7163 52.1389 30.0808C52.1696 30.1334 52.1523 30.3648 52.2643 30.3954C52.4316 30.4414 52.7169 30.4389 52.8678 30.3349C52.9792 30.258 52.7732 29.9197 52.9467 30.0047C53.0239 30.0427 52.9372 30.2786 53.0789 30.3322C53.2203 30.3859 53.5404 30.3174 53.6644 30.287C53.7873 30.2566 53.6685 29.9932 53.6752 29.9728C53.7164 29.8551 53.93 29.6783 53.9511 29.6747C55.0001 29.4471 56.0668 29.7317 57.0588 29.3898C57.1367 29.3634 57.0298 29.0823 57.0412 29.0752C57.2976 28.9019 57.2203 29.7161 57.4626 29.9392C57.3257 29.3539 57.4604 29.4396 57.6439 29.3388C57.7322 29.2898 57.6388 29.0706 57.6431 29.0456C57.7186 28.6726 57.8981 29.1033 57.94 29.1905C58.0944 29.511 58.1209 29.0938 58.225 29.3079C58.3288 29.5203 58.2463 29.8787 58.4315 29.8402C58.4447 29.6192 58.2048 29.0923 58.3294 28.9768C58.7905 28.5416 59.8874 28.7873 60.3164 28.7546C60.7491 28.7212 60.8887 28.655 61.1522 28.6853C61.6302 28.7397 61.3886 28.3606 61.6332 28.1214C61.8777 27.8822 61.9284 28.9155 62.0087 29.1248C62.0881 29.3342 62.0897 29.1033 62.1606 29.2133C62.2313 29.3234 62.1533 29.4902 62.2759 29.5138C62.3959 29.5378 62.6492 29.0922 62.6473 28.8582C62.6457 28.3619 62.4091 27.8845 62.7498 28.0046C62.7694 28.0118 62.7612 28.2875 62.8338 28.3018C63.4087 28.4063 63.9601 28.3171 64.5357 28.3969C64.6141 28.4084 64.603 28.7155 64.6492 28.7256C65.1298 28.8314 64.8779 28.3638 65.0177 27.7664C65.1013 28.5113 65.3134 28.9371 65.6555 28.8779C65.8627 28.8423 65.7672 28.528 65.858 28.277C65.8853 28.2013 66.0711 28.3948 66.0691 28.2389C66.0632 27.7294 65.8253 27.2022 66.2143 27.3573C66.2315 27.3649 66.2333 27.6441 66.289 27.6506C66.6512 27.6939 66.583 27.1725 66.9502 27.0392C67.2361 26.9351 67.81 27.1535 68.142 27.1443C68.2864 27.9724 68.5688 27.7236 68.5898 27.13C68.811 27.1127 69.0362 27.0371 69.2554 27.0774C69.3308 27.091 69.3295 27.3389 69.3433 27.363C69.5554 27.7429 69.5421 27.1717 69.5832 27.1414C69.6031 27.128 69.623 27.1158 69.643 27.1048C70.099 26.8626 70.5577 27.1552 70.9302 26.6786C70.9448 26.6605 70.8648 26.0814 71.0743 26.4756C71.0882 26.5029 70.9768 26.7944 71.2095 26.7712C71.4428 26.748 71.9226 26.9756 72.1756 26.6521C72.2413 26.5733 72.348 26.0705 72.5713 26.405C72.6013 26.4505 72.6101 26.6192 72.6572 26.7051C72.8086 26.9785 72.7501 26.3889 72.9552 26.8602C73.1641 27.3307 73.4478 27.6588 73.712 27.2561C73.7203 27.2443 73.7083 26.7703 73.8092 26.7585C73.9708 26.74 74.2115 26.7931 74.3716 26.7592C74.4483 26.7428 74.3442 26.467 74.3566 26.4593C74.8719 26.1945 75.2682 26.3818 75.8781 26.378C75.9885 26.3782 76.2064 25.9325 76.4655 26.201C76.757 26.4935 76.8022 27.9375 77.248 27.5044C77.4233 27.3317 77.3384 25.505 77.8892 26.3519C78.5545 25.9844 79.3162 26.3225 79.9661 25.854C79.9959 25.833 79.999 25.3175 80.0749 25.3092C80.1888 25.2977 80.2919 25.5177 80.3769 25.5164C80.7388 25.516 80.9942 25.2582 81.3297 25.2219C81.4536 25.2082 81.459 25.4562 81.6061 25.44C81.7604 25.4221 81.7955 25.087 82.0209 25.199C82.1891 25.2851 82.4849 25.8947 82.6934 25.9296C82.5667 25.2943 82.7115 25.2779 82.9189 25.06C82.9582 25.0179 82.8627 24.8075 82.8789 24.7762C82.943 24.6441 83.0631 24.8099 83.1255 24.6676C83.1404 24.6334 83.0959 24.4167 83.1054 24.3766C83.1834 24.0274 83.5195 24.465 83.581 24.5406C83.8077 24.829 83.8124 24.5339 83.9653 24.6339C84.1134 24.7349 83.9662 24.9317 84.1236 24.9786C84.443 25.077 84.8147 24.9608 85.1097 24.9077C85.228 24.885 85.0856 24.6136 85.1011 24.6037C85.3257 24.4787 85.6408 24.7323 85.6505 24.1287C86.138 25.5798 85.7638 23.9533 86.178 24.177C86.2102 24.1954 86.3922 24.8921 86.3106 25.0172C86.2272 25.1425 86.0249 24.9557 85.9106 25.1485C85.8863 25.1931 85.8299 25.8945 85.81 25.9406C85.6711 26.2967 85.4101 25.2536 85.3871 25.1981C85.1303 24.6017 85.0349 25.3649 84.9857 25.4268C84.7369 25.7153 84.4612 25.6197 84.2527 25.8317C84.1103 25.9704 84.2448 26.6615 84.1152 26.6669C83.6773 26.6867 83.3299 25.756 83.1149 26.6707C83.0685 26.8658 83.3009 27.6035 82.8811 27.0727C82.8552 27.0391 82.5194 26.5434 82.4543 26.9142C82.4475 26.9607 82.4933 27.1802 82.4762 27.203C82.3605 27.3512 82.2291 27.1958 82.0857 27.3126C81.937 27.4304 81.7886 27.5908 81.588 27.554C81.4672 27.5322 81.246 27.1507 81.1761 27.0605C80.9748 26.8007 80.9122 27.3062 80.7487 26.9751C80.5851 26.6423 80.6566 26.0723 80.3709 25.8935C80.4774 26.4664 80.5756 27.0566 80.6773 27.6338C80.1536 27.7182 79.5922 27.6381 79.076 27.7666C79.0121 27.7831 79.1391 28.0772 79.072 28.1029C78.7859 28.2102 78.4802 28.0429 78.1963 28.1893C77.9728 28.3046 77.7682 28.6826 77.5439 28.8116C77.2715 28.1856 76.9243 28.4838 76.6596 28.4732C76.5636 28.4704 76.5357 28.2944 76.4587 28.2502C76.1678 28.0878 76.3969 28.6435 76.3456 28.7478C76.1243 29.1938 75.8349 27.8916 75.5038 27.9891C75.4863 27.9938 75.397 28.7349 75.3738 28.7845C75.2299 29.1061 75.2943 28.5478 75.1597 28.5203C74.9114 28.4703 74.7222 28.3339 74.5025 28.588C74.4381 28.6632 74.3373 29.1336 74.121 28.8261C74.0927 28.7859 74.0595 28.553 74.0409 28.5425C73.7065 28.373 73.8332 29.1004 73.7216 29.3763C73.6084 29.6524 73.2604 29.1999 73.1809 29.0656C72.9745 28.7181 73.2542 28.8863 73.2542 28.8483C73.2564 28.3962 73.0872 28.5062 72.9375 28.4965C72.7817 27.7894 72.5895 27.8702 72.7826 28.4894C72.8041 28.557 72.9028 28.4695 72.9375 28.4965C72.9489 29.2173 72.7302 29.3516 72.3791 28.7427C72.2107 28.4581 72.2489 28.0817 71.9357 28.2762C71.7926 28.3643 71.9452 28.8426 71.8333 29.0021C71.5721 29.3672 71.0851 28.9861 70.7801 29.1182C70.6685 29.1663 70.8326 29.413 70.758 29.4551C70.5599 29.5678 70.3327 29.4023 70.1337 29.5465C70.1166 29.5592 70.2072 29.8051 70.1584 29.8436C70.156 29.8456 70.1532 29.847 70.1501 29.8477C69.6686 29.9721 69.1907 29.8757 68.6623 29.9695C68.4147 30.0136 67.9935 30.2526 67.7221 30.2711C67.2415 30.3068 66.6324 29.9979 66.2548 30.1708C66.0114 30.2819 66.1194 30.5523 66.0451 30.7641C65.8977 31.1753 65.4162 30.5775 65.3454 30.4842C65.3433 30.4811 65.5466 30.3748 65.4048 30.252C65.282 29.9641 65.3476 30.4825 65.3454 30.4842C65.301 30.4237 64.8551 30.4406 64.7776 30.5105C64.7359 30.5486 64.8117 30.8098 64.789 30.8247C64.2373 31.1735 63.6896 31.345 63.0676 31.3315C63.0561 31.3281 63.0167 31.0275 62.9904 31.0232C62.6178 30.9553 62.474 31.3585 62.233 31.6267C61.9929 31.8946 61.7554 31.8637 61.4933 31.3837C61.2918 31.4875 60.9403 31.3188 60.7437 31.2133C60.5445 31.1083 60.627 31.6923 60.6138 31.7066C60.2027 32.1617 59.862 31.8816 59.3483 31.923C59.1091 31.9407 58.656 32.1112 58.4101 32.222C58.216 32.3106 58.0681 32.1974 57.8956 32.319C57.8722 32.3353 57.9455 32.5885 57.9396 32.5999C57.7859 32.9474 57.7709 32.298 57.7066 32.1933C57.4727 31.8128 57.3394 31.6118 57.1083 31.8536C57.055 31.909 57.0431 32.8503 56.9405 32.9241C56.8068 33.0184 56.8021 32.6827 56.6633 32.7897C56.6514 32.7986 56.6911 32.999 56.5948 33.0075C56.1464 33.0503 55.6476 33.0212 55.1971 33.1249C55.1353 33.1383 55.2736 33.4422 55.1852 33.4668C54.7718 33.5819 54.2987 33.6566 53.8649 33.5822C53.7571 33.563 53.7794 33.3283 53.7453 33.2661C53.5373 32.89 53.4534 33.5074 53.4239 33.5243C52.7223 33.9424 52.0475 33.5216 51.3278 33.913C51.2887 33.9354 51.0814 34.6188 50.8392 34.1098C50.8228 34.076 50.5799 33.5543 50.5226 33.952C50.5191 33.9769 50.6596 34.2426 50.4994 34.2423C50.3404 34.2418 50.1273 34.4755 49.8586 34.2046C49.7736 34.1193 49.5148 33.6019 49.3942 34.0743C49.3868 34.1071 49.2579 35.1488 49.0226 34.4895C48.9841 34.381 48.8711 33.6584 48.699 34.0711C48.6663 34.1509 48.7788 34.2961 48.6765 34.4184C48.5201 34.6066 48.2415 34.4586 48.0737 34.8205C48.0446 34.8845 47.9659 35.4034 47.763 35.0577C47.7312 35.0036 47.7273 34.7561 47.6511 34.7423C47.2886 34.6756 46.9619 34.9015 46.5876 34.7984C46.4551 34.7624 46.4462 34.3628 46.3002 34.2821C46.1541 34.2014 45.8799 34.1483 45.7794 34.35C45.6789 34.5519 45.9376 35.1438 45.7474 35.2298C44.9201 35.6037 43.9955 35.3981 43.121 35.5035C42.9913 35.5191 43.1383 35.7209 42.9499 35.7598C42.2546 35.9043 41.0917 36.3319 40.3989 35.9728C39.8451 35.685 40.4025 35.2864 40.004 35.201C39.8119 35.1606 39.7507 35.9152 39.7118 35.9457C39.3337 36.2527 38.9816 35.988 38.6196 36.1555C38.5449 36.1901 38.6752 36.4675 38.6111 36.4938C38.3924 36.5861 38.1294 36.4999 37.9166 36.5635C37.8213 36.5927 37.8801 36.812 37.7874 36.8113C37.5661 36.812 37.3595 36.7532 37.1105 36.5832C37.0879 36.5677 37.1662 36.2671 37.0048 36.2861C36.7438 36.3176 36.3862 36.1704 36.1297 36.4372C36.0538 36.5172 36.1437 37.0266 35.891 36.7098C35.838 36.6437 35.7761 36.0235 35.6541 36.5916C35.6343 36.6859 35.3938 37.466 35.1276 37.0405C35.0575 36.9285 34.8433 36.4511 34.7519 36.549C34.7399 36.5642 34.8475 36.8269 34.7648 36.8697C34.4724 37.0156 34.1445 37.0457 33.8452 37.1891C33.7654 37.228 33.9426 37.4877 33.8221 37.5366C33.4867 37.6721 33.0384 37.68 32.6839 37.6537C32.553 37.6435 32.5962 37.3934 32.5824 37.3696C32.3602 36.9818 32.377 37.5572 32.3347 37.5988C32.0712 37.8492 31.7917 37.6288 31.5244 37.7499C31.4507 37.7826 31.5545 38.0394 31.5435 38.066C31.4271 38.3277 31.4575 37.8267 31.3471 37.7924C31.0375 37.6947 30.7286 37.7738 30.4525 37.8598C30.3511 37.8919 30.5246 38.1798 30.4331 38.2049C29.8893 38.3602 29.2999 38.4381 28.7329 38.3663C28.6258 38.3522 28.6455 38.1023 28.6144 38.0518C28.4005 37.6975 28.2789 38.2569 28.2383 38.3155C28.0535 38.5831 27.9271 38.3886 27.7357 38.4646C26.8096 38.8379 25.5857 38.9198 24.6526 39.0034C23.444 39.1125 22.4814 39.0568 21.3497 39.3283C21.278 39.3452 21.4099 39.6485 21.3489 39.6671C20.5712 39.891 19.7414 39.9178 18.9645 40.158C18.8986 40.1775 19.0516 40.4597 18.9479 40.5011C18.7356 40.5882 18.4568 40.6236 18.222 40.5684C18.1075 40.5421 18.2009 40.2578 18.0868 40.2365C17.8258 40.1856 17.5449 40.2162 17.294 40.3134C17.1876 40.3553 17.4119 40.631 17.2693 40.6615C17.0269 40.7151 16.7901 40.7691 16.5566 40.8164C15.8167 40.9656 15.0974 41.0558 14.3125 40.8969C14.2412 40.8822 14.0682 40.2688 13.9422 40.4169C13.9643 40.5921 14.0039 40.7956 14.0345 40.9815C12.6453 41.3509 11.1998 41.4066 9.79173 41.6519C9.73339 41.6621 9.89923 41.9722 9.78695 41.9936C9.11094 42.1232 8.50915 42.3396 7.75613 42.1536C7.68204 42.1355 7.60581 41.5467 7.41859 41.677C7.38414 41.7008 7.10294 41.8402 7.05805 41.9811C7.05197 42.0021 7.1611 42.2615 7.07061 42.2888C6.52156 42.4474 5.93373 42.5099 5.36599 42.4673C5.27585 42.4596 5.30179 42.1516 5.23298 42.1446C4.76069 42.0936 4.34007 42.426 3.95323 42.2648C3.71792 42.1511 3.63077 41.6447 3.36312 41.2105C3.34564 41.1793 3.31214 41.1717 3.29286 41.128C3.26792 41.089 3.28885 40.9831 3.19872 40.8664C2.97114 40.5796 2.69985 40.3046 2.50395 39.9637C2.29705 39.6316 2.15298 39.252 1.84924 38.9865C1.80967 38.9654 1.74594 38.9736 1.57405 39.1136C1.432 39.2199 1.1146 39.5906 1.00519 40.0261C0.90422 40.4584 0.92547 40.4958 0.873674 40.4935C0.852316 40.4921 0.825228 40.5034 0.791233 40.4647C0.76368 40.4247 0.693574 40.2989 0.745745 39.8879C0.747847 39.8484 0.835273 39.5052 1.01729 39.2175C1.20694 38.9099 1.41445 38.7149 1.53495 38.5941C1.80232 38.3426 1.89962 38.2406 1.93455 38.1447C1.97873 38.0205 1.70791 37.8162 1.82734 37.6307C1.93621 37.4523 2.15653 37.6362 2.26621 37.4486C2.37394 37.2615 2.21164 36.9573 2.48573 36.8348ZM59.8436 30.7459C59.6294 30.4976 59.7934 31.5213 59.9246 31.245C59.9307 31.2304 59.8545 30.758 59.8436 30.7459ZM79.4481 26.8694C79.145 26.4636 79.1236 27.1531 79.3474 27.4687C79.5703 27.784 79.5401 26.9924 79.4481 26.8694ZM81.5776 26.1C81.2609 25.7967 81.5143 27.245 81.719 26.9C81.7309 26.8805 81.596 26.1176 81.5776 26.1ZM3.90911 40.8932C3.90501 40.88 3.77875 40.9005 3.77913 40.9147C3.80401 41.2491 4.04865 41.2098 3.90911 40.8932ZM83.68 25.2927C83.5556 25.1158 83.3905 25.3851 83.5342 25.6075C83.6469 25.787 83.8297 25.5139 83.68 25.2927ZM51.1735 31.2163C51.1682 31.2016 51.0716 31.2052 51.0893 31.2907C51.1465 31.5661 51.2629 31.464 51.1735 31.2163ZM87.3584 24.503C86.8098 24.5518 86.2275 23.4331 86.8597 23.446C86.9733 23.4488 86.7001 23.8722 86.8598 23.9522C87.1493 24.0982 87.1753 23.3171 87.5111 23.6709C87.5695 23.736 87.3899 24.5027 87.3577 24.5049C87.3579 24.5043 87.3582 24.5037 87.3584 24.503ZM59.5238 29.5389C59.5181 29.526 59.3849 29.5374 59.3842 29.5513C59.373 29.888 59.6415 29.8653 59.5238 29.5389ZM45.5652 31.5934C45.5528 31.566 45.2456 31.5945 45.2406 31.6228C45.1799 32.181 45.8013 32.1249 45.5652 31.5934ZM68.1512 27.1653C68.2274 26.8143 68.3993 26.7424 68.5891 27.1297C68.4435 27.1346 68.2919 27.1597 68.1512 27.1653Z" fill="black"/>
<path d="M33.3235 13.7446C33.6848 13.6165 34.1799 13.6625 34.5627 13.7562C34.6826 13.7851 34.6429 13.9739 34.7265 14.0021C34.89 14.057 35.0262 13.9524 35.1892 14.0211C35.2433 14.0447 35.2096 14.3407 35.2656 14.3589C35.5727 14.4565 35.8425 14.3541 36.1468 14.3848C37.6439 14.5369 39.0966 14.4963 40.593 14.4739C41.0868 14.4662 41.7095 14.6668 42.2016 14.4992C42.259 14.4794 42.1974 14.2291 42.2064 14.207C42.3489 13.8681 42.3441 14.387 42.4663 14.4431C42.9512 14.6643 43.4603 14.6346 43.8882 14.4906C44.0709 14.4285 43.8303 13.9437 44.0484 14.2071C44.0635 14.2248 44.0443 14.4995 44.0987 14.5229C44.2218 14.5754 44.4372 14.504 44.5294 14.5159C44.7074 14.5402 44.7358 14.5345 44.9 14.5203C45.1249 14.5032 45.4043 14.6093 45.6395 14.5226C45.6895 14.5033 45.5922 14.2341 45.6693 14.1783C45.7464 14.1227 45.9659 14.1232 46.0459 14.1806C46.126 14.2381 46.1178 14.4587 46.136 14.5071C46.2871 14.9163 46.476 14.3074 46.5067 14.2896C47.0662 13.9822 47.6104 14.2597 48.1606 14.2C48.5773 14.154 49.0177 13.9961 49.417 13.9684C49.8926 13.9364 50.3132 14.0426 50.7719 13.9669C50.8203 13.9592 50.7281 13.6404 50.7872 13.6304C51.4125 13.5244 52.0478 13.4911 52.6987 13.6418C52.764 13.6572 52.7142 13.9514 52.7814 13.9838C53.1913 14.1762 53.8683 14.6717 53.9589 13.4044C54.225 13.4241 54.5467 13.4392 54.8098 13.6634C54.9788 13.8077 54.8667 14.1348 55.0375 13.9815C55.076 13.9473 54.9913 13.6813 55.0514 13.6505C55.3043 13.5215 55.6018 13.5779 55.8456 13.4082C55.8951 13.373 55.8534 13.1308 55.8634 13.0852C55.9502 12.7155 56.2274 13.2795 56.2781 13.3171C56.6639 13.5962 56.9046 13.4421 57.2292 13.4133C57.3045 13.4067 57.1787 13.0893 57.2498 13.0712C57.6213 12.9815 58.0167 12.965 58.4005 13.0683C58.486 13.092 58.4428 13.3795 58.4853 13.4051C58.6725 13.5147 58.6494 12.9836 58.8282 13.0784C58.866 13.0977 58.8737 13.3387 58.8831 13.3642C59.0308 13.7643 59.0507 13.171 59.075 13.1552C59.3802 12.9417 59.658 13.5265 59.9605 13.404C59.9966 13.3888 59.8773 13.0965 59.9808 13.0721C60.6757 12.9068 61.4202 12.9034 62.1497 13.0616C62.2623 13.0859 62.212 13.3219 62.2222 13.3491C62.3852 13.7728 62.3871 13.1788 62.4197 13.1526C62.679 12.9607 62.993 13.421 63.1005 12.7008C64.3098 12.8007 65.4248 12.2665 66.673 12.7431C66.6887 12.7485 66.6985 13.0399 66.7297 13.0493C67.1044 13.1663 66.9792 12.7273 67.1468 12.1497C67.1891 12.0046 67.4544 12.6425 67.4766 12.6889C67.5578 12.86 67.552 13.2962 67.576 13.3282C67.7724 13.5791 67.565 12.1655 67.7817 12.1372C67.7887 12.1387 67.7938 12.4031 67.8153 12.4267C67.8823 12.5009 67.925 12.39 67.9917 12.4727C68.1452 12.6641 68.2767 13.347 68.4208 12.921C68.4387 12.8658 68.2971 12.0671 68.4972 12.0797C68.5773 12.0854 68.9184 12.0269 69.0206 12.0664C69.1229 12.1059 69.0913 12.3734 69.0996 12.3837C69.4018 12.6923 69.3229 12.847 69.5184 13.3368C69.7137 13.8248 69.5188 12.6253 69.5536 12.4839C69.5893 12.3428 69.8177 12.6 69.8775 12.6919C69.9374 12.7839 69.9009 12.9561 69.9499 13.0062C70.274 13.3326 69.9912 12.3924 70.0563 12.1893C70.2089 11.7083 70.4936 12.579 70.699 12.6403C70.7545 12.6569 70.6844 12.4593 70.7283 12.434C70.9041 12.3363 71.0568 12.5993 71.2339 12.315C71.2631 12.2686 71.3607 11.7087 71.525 12.0873C71.5484 12.1419 71.5346 12.3704 71.6204 12.4094C71.7494 12.4678 71.965 12.4875 72.0843 12.3952C72.1716 12.327 72.012 11.9758 72.1471 12.073C72.2071 12.1164 72.1388 12.3444 72.2491 12.4082C72.3591 12.4719 72.6098 12.4272 72.704 12.4064C72.7981 12.3854 72.7068 12.1149 72.7119 12.0951C72.7434 11.9814 72.9062 11.8217 72.9221 11.8198C73.7337 11.6702 74.556 12.0284 75.3206 11.7552C75.3803 11.7342 75.2953 11.4478 75.304 11.4416C75.4987 11.2869 75.4476 12.0901 75.6374 12.3278C75.5258 11.7374 75.6311 11.8314 75.772 11.7434C75.8397 11.7005 75.7652 11.4767 75.7682 11.4522C75.8223 11.0867 75.9655 11.5262 75.9989 11.6155C76.1218 11.9439 76.137 11.5312 76.2198 11.7506C76.3025 11.9682 76.2435 12.3189 76.3858 12.2925C76.3929 12.0739 76.2015 11.5352 76.2956 11.4285C76.5605 11.1278 77.1014 11.225 77.4874 11.2915C77.6238 11.3134 77.7429 11.3317 77.8293 11.3294C78.1679 11.3207 78.266 11.2641 78.4682 11.3094C78.8401 11.3898 78.6449 10.9998 78.8289 10.7755C79.0128 10.5509 79.0792 11.5796 79.1471 11.7916C79.2145 12.0037 79.2099 11.7744 79.268 11.8874C79.3261 12.0003 79.2695 12.162 79.366 12.1917C79.4635 12.2212 79.6353 11.7939 79.6307 11.5608C79.615 11.0679 79.4173 10.5822 79.6849 10.7184C79.7003 10.7266 79.7024 10.9999 79.7592 11.0177C80.2071 11.1503 80.6347 11.0871 81.0791 11.1925C81.1398 11.2074 81.1436 11.5117 81.1796 11.5237C81.5543 11.6499 81.3396 11.1751 81.4266 10.5876C81.5204 11.3306 81.7105 11.7607 81.9724 11.7158C82.1294 11.6892 82.0417 11.3734 82.0988 11.1283C82.1159 11.0545 82.267 11.2539 82.2577 11.0993C82.2282 10.5938 82.0191 10.0619 82.3301 10.2298C82.3439 10.2379 82.3585 10.515 82.4024 10.5234C82.6859 10.5794 82.6166 10.0579 82.8814 9.94075C83.0935 9.84799 83.5506 10.0824 83.8075 10.0825C83.9716 10.9069 84.175 10.6684 84.1523 10.081C84.321 10.07 84.4856 10.0017 84.6605 10.0463C84.721 10.0613 84.7359 10.3069 84.7483 10.3312C84.9411 10.7118 84.894 10.1451 84.9245 10.1159C85.257 9.82425 85.6637 10.1719 85.9312 9.6831C85.9407 9.66553 85.8319 9.09154 86.0215 9.48558C86.0348 9.51268 85.9738 9.79908 86.1493 9.78009C86.3274 9.76059 86.7173 9.99154 86.8915 9.67216C86.9347 9.59502 86.9697 9.09952 87.1712 9.43193C87.1984 9.47713 87.2206 9.644 87.2647 9.72924C87.4063 10.0006 87.3067 9.41752 87.5086 9.88441C87.7084 10.3518 87.9832 10.6714 88.1382 10.2764C88.1434 10.2647 88.0868 9.79683 88.1627 9.78546C88.2817 9.76826 88.4813 9.81833 88.6045 9.78367C88.6639 9.76681 88.5537 9.49521 88.5627 9.48741C88.918 9.22831 89.2717 9.40334 89.7307 9.39613C89.8163 9.39502 89.9348 8.95241 90.1698 9.21235C90.4291 9.4962 90.6375 10.9186 90.9353 10.4826C91.0543 10.3081 90.7594 8.51165 91.2927 9.33325C91.7685 8.95407 92.4 9.266 92.8442 8.78225C92.8641 8.76074 92.7911 8.2549 92.849 8.24412C92.9362 8.2288 93.0531 8.43953 93.1179 8.4356C93.391 8.42483 93.5602 8.15956 93.8113 8.11226C93.9064 8.09382 93.9485 8.33654 94.0623 8.31435C94.1767 8.29164 94.1512 7.9623 94.347 8.06195C94.4948 8.13834 94.8107 8.72612 94.9844 8.7498C94.7885 8.13231 94.8952 8.11149 95.0222 7.88958C95.0467 7.84657 94.9387 7.64479 94.9467 7.61339C94.9774 7.48088 95.0981 7.6378 95.122 7.49665C95.1279 7.46269 95.0591 7.25244 95.06 7.21283C95.0649 6.86804 95.3974 7.28186 95.4558 7.35373C95.6766 7.62701 95.64 7.33586 95.7704 7.42891C95.9007 7.52194 95.8186 7.72017 95.9479 7.75986C96.2155 7.84181 96.4826 7.71434 96.7052 7.65009C96.7937 7.62313 96.6397 7.36342 96.6501 7.35306C96.8073 7.2211 97.0908 7.45694 97.0031 6.86577C97.6147 8.26457 97.065 6.6892 97.4213 6.89035C97.4496 6.9068 97.7053 7.57961 97.6607 7.70606C97.6161 7.83241 97.4256 7.6594 97.3697 7.85197C97.3563 7.89723 97.4245 8.5855 97.4174 8.63099C97.3617 8.98648 96.996 7.97554 96.9688 7.92241C96.6709 7.35056 96.7225 8.09931 96.691 8.16283C96.5472 8.45373 96.3136 8.37268 96.184 8.58905C96.0985 8.72944 96.3097 9.40115 96.2087 9.4121C95.8732 9.44879 95.4563 8.5523 95.4281 9.45814C95.4216 9.65143 95.7248 10.3619 95.3082 9.86163C95.2821 9.83008 94.9404 9.35941 94.952 9.72373C94.9534 9.76969 95.023 9.98285 95.0127 10.006C94.9417 10.1572 94.8141 10.0107 94.7212 10.1305C94.6275 10.2506 94.5254 10.4172 94.3656 10.3882C94.2697 10.3711 94.0376 10.0063 93.9677 9.92104C93.7697 9.67459 93.7962 10.1726 93.6209 9.85357C93.445 9.53278 93.4168 8.97107 93.168 8.80593C93.3346 9.36428 93.4969 9.94007 93.66 10.503C93.255 10.6074 92.808 10.5466 92.4106 10.6915C92.3622 10.7098 92.5019 10.995 92.4522 11.0224C92.2425 11.1364 91.9766 10.9816 91.7693 11.1339C91.6089 11.253 91.4937 11.6306 91.3275 11.7641C91.0323 11.1546 90.8055 11.4527 90.5858 11.4494C90.5085 11.4487 90.4664 11.2756 90.4001 11.2335C90.1509 11.0785 90.3951 11.6226 90.366 11.7266C90.2374 12.1709 89.8749 10.8876 89.6177 10.9897C89.6044 10.9945 89.6104 11.7278 89.5968 11.7771C89.5151 12.0966 89.5089 11.5443 89.3992 11.5186C89.2031 11.4702 89.0416 11.3365 88.8873 11.5904C88.8425 11.6654 88.8057 12.1316 88.6083 11.8277C88.5823 11.7879 88.5338 11.5579 88.5183 11.5475C88.2428 11.3798 88.4138 12.0978 88.3447 12.3722C88.2731 12.6473 87.9592 12.1989 87.8848 12.0657C87.6918 11.7214 87.9263 11.8887 87.923 11.8511C87.8841 11.4039 87.7612 11.5124 87.6436 11.502C87.4589 10.802 87.3176 10.8804 87.5222 11.4941C87.5449 11.5611 87.6141 11.4751 87.6436 11.502C87.7149 12.2153 87.5616 12.3454 87.2255 11.7426C87.0685 11.4599 87.0677 11.0878 86.8368 11.2778C86.7314 11.3637 86.8898 11.8386 86.8141 11.9956C86.635 12.355 86.2285 11.9702 85.9913 12.0978C85.9057 12.1441 86.0538 12.3907 85.9971 12.4315C85.8465 12.5406 85.6627 12.3713 85.5191 12.5097C85.5062 12.5226 85.6033 12.7938 85.5525 12.8085C85.1618 12.9268 84.7965 12.817 84.3799 12.8977C84.1863 12.9353 83.8664 13.1608 83.6524 13.171C83.2915 13.1889 82.7725 12.8666 82.493 13.0225C82.3103 13.123 82.406 13.3955 82.3579 13.6027C82.2649 14.0043 81.8479 13.3945 81.7895 13.2988C81.7878 13.2957 81.9473 13.1975 81.8289 13.0704C81.7199 12.7799 81.7912 13.2972 81.7895 13.2988C81.7525 13.237 81.4062 13.2348 81.3483 13.3007C81.3171 13.3367 81.386 13.5993 81.3688 13.613C80.9514 13.935 80.5203 14.0812 80.0291 14.0376C80.02 14.0337 79.9808 13.7332 79.96 13.7276C79.6742 13.6403 79.5682 14.034 79.3834 14.2881C79.1987 14.5421 79.0075 14.4992 78.7963 14.0074C78.6434 14.0991 78.3688 13.9112 78.2088 13.7959C78.049 13.6806 78.1234 14.2655 78.1131 14.2789C78.0711 14.3351 78.0298 14.3789 77.9887 14.4125C77.7256 14.6344 77.4772 14.4098 77.1291 14.4181C76.9344 14.4224 76.5887 14.5623 76.3966 14.6568C76.2459 14.7324 76.1292 14.6104 75.995 14.72C75.9768 14.7347 76.0362 14.9911 76.0317 15.002C75.9135 15.3373 75.8971 14.6911 75.8459 14.583C75.6621 14.1894 75.5566 13.9809 75.3783 14.2056C75.3373 14.2571 75.3334 15.1914 75.253 15.2579C75.1485 15.3426 75.1434 15.0088 75.0349 15.1058C75.0256 15.1138 75.0575 15.3155 74.9818 15.3176C74.6289 15.3299 74.2483 15.265 73.8915 15.3368C73.8428 15.3458 73.9515 15.6575 73.8819 15.6758C73.552 15.7617 73.1989 15.7995 72.8538 15.6946C72.7692 15.6677 72.7875 15.4362 72.761 15.3719C72.5991 14.983 72.5303 15.5904 72.5068 15.605C71.9652 15.9674 71.4322 15.4993 70.8751 15.8316C70.845 15.8508 70.6788 16.5134 70.4945 15.9888C70.4819 15.954 70.2976 15.4167 70.2494 15.8072C70.2464 15.8316 70.3536 16.1066 70.2286 16.0937C70.1028 16.081 69.9349 16.2964 69.7298 16.0056C69.6648 15.9141 69.4697 15.3794 69.3712 15.8389C69.3653 15.8709 69.2533 16.8953 69.0774 16.2215C69.0486 16.1105 68.9693 15.3836 68.83 15.7797C68.8035 15.8564 68.8896 16.0097 68.8081 16.1229C68.6835 16.2973 68.4714 16.1273 68.3363 16.473C68.313 16.5341 68.2451 17.0431 68.0918 16.683C68.0678 16.6266 68.0682 16.3805 68.0091 16.3605C67.7285 16.2643 67.4679 16.462 67.1822 16.3278C67.0802 16.2809 67.0792 15.8833 66.9674 15.7908C66.8557 15.6983 66.644 15.6224 66.5627 15.8143C66.4813 16.0063 66.6729 16.6161 66.5233 16.6856C65.8733 16.987 65.1596 16.7032 64.4812 16.7314C64.3806 16.7355 64.4904 16.9488 64.344 16.9709C63.8019 17.0537 62.892 17.3752 62.3625 16.9564C61.9382 16.621 62.3811 16.2749 62.073 16.1545C61.9239 16.0972 61.8618 16.8408 61.8306 16.8676C61.5314 17.1383 61.2655 16.8434 60.9809 16.9767C60.9221 17.0044 61.0165 17.2917 60.966 17.312C60.7934 17.3839 60.5922 17.2741 60.4266 17.3177C60.3522 17.338 60.3923 17.5612 60.3205 17.5519C60.1491 17.5323 59.9903 17.455 59.8026 17.2631C59.7855 17.2456 59.8535 16.9543 59.7284 16.9582C59.5266 16.9653 59.2502 16.7865 59.0472 17.0273C58.9866 17.0996 59.0428 17.6139 58.8557 17.2757C58.8164 17.2051 58.7851 16.5835 58.6752 17.1363C58.6567 17.2282 58.4512 17.9802 58.2567 17.5327C58.2055 17.4149 58.0528 16.9208 57.9793 17.0095C57.9695 17.0234 58.0457 17.2944 57.9804 17.3291C57.7484 17.4467 57.4971 17.4453 57.2599 17.5597C57.1968 17.5908 57.327 17.8654 57.2319 17.9026C56.9705 18.0052 56.6231 17.9706 56.349 17.9107C56.2484 17.8881 56.2888 17.6439 56.2789 17.6189C56.1187 17.2127 56.1148 17.7856 56.0808 17.8228C55.8685 18.0465 55.6599 17.8008 55.4508 17.8952C55.3929 17.9206 55.4654 18.1855 55.4562 18.2109C55.3586 18.4596 55.3969 17.9651 55.3126 17.9204C55.0762 17.7937 54.834 17.8424 54.6177 17.9013C54.538 17.9233 54.6638 18.2259 54.5919 18.242C54.1676 18.3435 53.7116 18.3634 53.2726 18.237C53.1899 18.2127 53.2133 17.9664 53.1908 17.9132C53.0351 17.5408 52.9258 18.084 52.8928 18.1382C52.7432 18.3855 52.652 18.18 52.5018 18.2366C51.7666 18.5171 50.8228 18.4765 50.1019 18.4659C49.1628 18.4534 48.4199 18.301 47.5408 18.4547C47.4848 18.4642 47.5757 18.7786 47.5279 18.7909C46.9118 18.9345 46.282 18.8745 45.6653 19.0331C45.6147 19.0456 45.7207 19.3416 45.6406 19.3718C45.4765 19.4358 45.2605 19.4419 45.0791 19.3629C44.9907 19.3249 45.0752 19.0524 44.9868 19.0195C44.7808 18.9424 44.5686 18.9428 44.3723 19.0127C44.2889 19.0431 44.4507 19.3403 44.3398 19.3555C43.5881 19.4656 42.8471 19.5972 42.0417 19.2744C41.9864 19.2523 41.8745 18.6254 41.7757 18.7582C41.7855 18.9344 41.8075 19.1405 41.8233 19.3283C40.7311 19.5441 39.6183 19.4383 38.5102 19.5189C38.4634 19.5224 38.5786 19.8487 38.4883 19.8571C37.965 19.9063 37.469 20.0514 36.9004 19.7739C36.844 19.7469 36.8104 19.1552 36.6634 19.2604C36.6376 19.2795 36.4104 19.3824 36.363 19.5164C36.3567 19.5366 36.428 19.807 36.3531 19.8228C35.9174 19.91 35.4496 19.8949 34.9928 19.7723C34.919 19.752 34.9643 19.4515 34.9115 19.4345C34.5372 19.3161 34.1706 19.5788 33.8008 19.3484C33.5532 19.1931 33.5859 18.6785 33.4127 18.193C33.3882 18.1246 33.2452 18.1281 33.208 17.8391C33.114 17.1124 33.1004 16.3075 32.9921 15.5338C32.9688 15.3672 32.7974 15.567 32.8682 15.1511C32.8733 15.1233 32.9972 14.9749 33.017 14.8343C33.0308 14.737 32.9578 14.4467 32.9935 14.3204C33.0292 14.1942 33.1077 14.4357 33.1729 14.2849C33.2378 14.1323 33.1681 13.8007 33.3235 13.7446ZM77.4959 13.2794C77.3263 13.0197 77.4699 14.0464 77.567 13.7799C77.5715 13.7658 77.5045 13.292 77.4959 13.2794ZM92.5825 9.79701C92.2911 9.40741 92.3733 10.0844 92.5888 10.3884C92.8047 10.6918 92.6714 9.91491 92.5825 9.79701ZM94.1385 8.96293C93.8441 8.67864 94.2604 10.0886 94.3701 9.7416C94.3767 9.72188 94.1557 8.9794 94.1385 8.96293ZM33.9627 17.993C33.9596 17.9795 33.8562 17.9766 33.8552 17.9905C33.8347 18.3235 34.0413 18.3289 33.9627 17.993ZM95.6525 8.08542C95.5325 7.91584 95.4396 8.1885 95.5888 8.39947C95.709 8.56915 95.8023 8.29623 95.6525 8.08542ZM70.7719 13.141C70.7679 13.126 70.6938 13.1219 70.7069 13.2083C70.7494 13.4863 70.8394 13.3941 70.7719 13.141ZM98.3952 7.14575C97.9734 7.22884 97.3381 6.16174 97.8252 6.14252C97.9131 6.13912 97.7758 6.56753 97.9128 6.637C98.1622 6.76359 98.0439 5.99921 98.3649 6.32263C98.423 6.38202 98.42 7.1436 98.3951 7.1476C98.3951 7.14698 98.3952 7.14637 98.3952 7.14575ZM77.2286 12.0612C77.224 12.0481 77.1218 12.0511 77.1215 12.0649C77.1185 12.3986 77.3249 12.3926 77.2286 12.0612ZM66.4393 13.0582C66.4301 13.0299 66.1924 13.0322 66.188 13.0599C66.1325 13.6091 66.6138 13.606 66.4393 13.0582ZM83.8161 10.1036C83.8592 9.75678 83.9804 9.6918 84.1517 10.0807C84.0396 10.0815 83.9299 10.101 83.8161 10.1036Z" fill="black"/>
<path d="M77.2769 56.0903C76.3798 56.3162 75.1926 56.3985 74.258 56.4079C73.9692 56.4106 74.0844 56.2071 73.8843 56.2008C73.4948 56.1884 73.1555 56.3319 72.7604 56.3071C72.6302 56.2978 72.742 55.986 72.6066 55.9829C71.8685 55.9673 71.2024 56.1466 70.4638 56.2007C66.8356 56.4663 63.3052 56.9372 59.6839 57.462C58.4811 57.637 56.9934 57.6498 55.7987 58.0078C55.6584 58.05 55.794 58.2832 55.771 58.3093C55.4123 58.7105 55.4508 58.1767 55.1655 58.165C54.0087 58.1254 52.7855 58.3659 51.7683 58.7086C51.3416 58.8542 51.9042 59.2409 51.3897 59.0722C51.3538 59.0611 51.4037 58.7698 51.2736 58.7717C50.9797 58.7759 50.4786 58.9528 50.262 58.9881C49.8638 59.049 49.7704 59.0772 49.4068 59.1765C48.8821 59.3186 48.2423 59.3739 47.7544 59.6194C47.6479 59.6739 47.8881 59.8806 47.7351 59.989C47.588 60.0925 47.1751 60.2449 47.0486 60.242C46.9206 60.2354 46.8533 60.0244 46.8111 59.9902C46.5806 59.7975 46.438 60.1041 46.6622 60.0813C46.6612 60.2117 46.7033 60.2935 46.7022 60.3042C46.6962 60.339 46.7058 60.3585 46.7426 60.3043C46.7701 60.2493 46.8746 60.1062 46.833 59.7018C46.7984 59.2788 46.4181 58.8652 46.2611 58.7876C46.0862 58.6787 46.0276 58.676 46.0069 58.6674C45.9718 58.6652 46.2844 58.7005 46.5415 58.7018C47.0974 58.7106 47.7271 58.6894 48.3704 58.5643C49.3567 58.3704 50.3851 58.0117 51.3366 57.7866C51.6356 57.716 51.9078 57.66 52.2006 57.6011C52.984 57.4463 53.7528 57.3167 54.5541 57.0734C54.6713 57.0382 54.4452 56.7619 54.5883 56.7182C56.0766 56.2623 57.5746 55.864 59.1322 55.6329C59.2885 55.61 59.1767 55.9425 59.338 55.9359C60.3231 55.8905 61.9396 55.9955 62.1215 54.634C62.7553 54.4929 63.5213 54.3117 64.1526 54.3813C64.5585 54.4262 64.3026 54.832 64.7018 54.5697C64.7919 54.5108 64.5827 54.2887 64.7241 54.2202C65.3217 53.9313 66.0283 53.8057 66.607 53.4774C66.7237 53.4103 66.6165 53.1867 66.6389 53.1334C66.8308 52.699 67.5056 53.1079 67.6276 53.1147C68.5497 53.162 69.1171 52.8513 69.8892 52.6155C70.0686 52.5609 69.758 52.3134 69.9269 52.2496C70.8043 51.9226 71.7363 51.6557 72.6522 51.5161C72.8568 51.4856 72.7636 51.8102 72.8657 51.8093C73.3149 51.802 73.2435 51.268 73.6693 51.2515C73.7588 51.2474 73.786 51.4911 73.8091 51.5114C74.173 51.8296 74.1983 51.2047 74.255 51.1728C74.9654 50.7576 75.648 51.1808 76.3603 50.858C76.446 50.8185 76.1512 50.5947 76.3975 50.5016C78.0312 49.8817 79.8104 49.3839 81.5228 49.0681C81.7864 49.0195 81.6791 49.2962 81.7039 49.3176C82.1046 49.6476 82.0902 49.0306 82.1655 48.9819C82.7627 48.6131 83.5404 48.8722 83.7559 48.0575C84.6353 47.8387 85.5038 47.5561 86.3463 47.2657C88.2532 46.6048 90.1068 45.897 92.0839 45.5481C92.1193 45.5412 92.172 45.8339 92.2438 45.8182C93.1125 45.6245 92.7927 45.269 93.046 44.5396C93.1086 44.3575 93.7705 44.7635 93.8291 44.7847C94.0377 44.8745 94.1223 45.322 94.1805 45.3294C94.6528 45.3718 93.9213 44.1519 94.1559 43.9693C94.1652 43.9647 94.3017 44.1931 94.3389 44.1962C94.4659 44.1975 94.4381 44.0737 94.5216 44.1107C94.6177 44.1521 94.823 44.2674 94.9797 44.236C95.137 44.2184 95.1789 44.031 94.9049 43.9947C94.823 43.9781 94.2486 44.5285 94.0656 44.2775C94.0591 44.2692 94.0505 44.2591 94.0398 44.2471C93.8691 44.0551 93.3526 43.5734 93.2231 43.393C93.0882 43.1998 93.3799 43.1119 93.3756 43.0927C93.1387 42.4182 93.41 42.4697 93.5014 41.8731C93.5772 41.2701 92.8668 42.261 92.6819 42.2835C92.4971 42.3046 92.3235 41.8014 92.2894 41.6512C92.2587 41.5023 92.4744 41.4592 92.4267 41.3516C92.1006 40.6448 91.8265 41.6538 91.5373 41.6787C90.864 41.752 91.0544 40.7917 90.6903 40.4534C90.5934 40.3635 90.5728 40.5933 90.4656 40.5484C90.0481 40.3739 89.9489 39.9873 89.3758 39.9644C89.2827 39.9603 88.6659 40.2435 88.6129 39.7734C88.6048 39.7054 88.8021 39.5527 88.6528 39.4223C88.4252 39.2238 87.9748 38.961 87.6539 38.9065C87.4204 38.8675 87.5175 39.3099 87.299 39.0938C87.2013 38.998 87.5026 38.8879 87.3099 38.7241C87.1194 38.5593 86.5345 38.3492 86.3097 38.2816C86.084 38.212 86.116 38.5198 86.0917 38.5314C85.9474 38.5953 85.4937 38.5916 85.4542 38.5802C83.5941 38.0435 81.842 37.2866 79.8836 37.3587C79.7321 37.3645 79.8214 37.6642 79.7982 37.6681C79.281 37.7752 79.7122 37.001 79.3476 36.7288C79.3869 37.3305 79.1805 37.2155 78.8063 37.2815C78.6295 37.3142 78.7272 37.5464 78.711 37.5702C78.4614 37.9246 78.2663 37.4732 78.2181 37.3809C78.0375 37.0417 77.8574 37.4537 77.7302 37.2293C77.6016 37.0069 77.8629 36.6575 77.5061 36.6777C77.418 36.8971 77.704 37.4456 77.4432 37.5494C76.7445 37.8227 75.6151 37.7851 74.6778 37.7645C74.3404 37.7469 74.0388 37.7694 73.8268 37.8183C73.1126 37.9994 72.9209 38.1749 72.5044 38.3303C71.7559 38.6613 72.2384 38.8444 71.9935 39.2853C71.7635 39.7419 71.2438 38.8363 71.0401 38.7222C70.8331 38.6138 70.9277 38.8368 70.7745 38.8176C70.6196 38.8005 70.6669 38.5422 70.4684 38.6758C70.2623 38.8112 70.1348 39.5486 70.2704 39.7522C70.5443 40.19 71.1007 40.3083 70.6222 40.6265C70.5944 40.6453 70.4436 40.3986 70.3472 40.4799C69.5829 41.1417 69.0305 42.0507 68.4139 42.8807C68.3284 42.9955 68.1155 42.7495 68.0624 42.8157C67.5143 43.514 68.1051 43.4562 68.4307 44.1019C67.7901 43.705 67.259 43.758 67.0044 44.3757C66.8536 44.7469 67.1849 44.7993 67.3087 45.12C67.3464 45.2155 67.0401 45.398 67.1678 45.4974C67.5858 45.821 68.1961 45.7712 67.7721 46.3121C67.7528 46.3357 67.5221 46.1608 67.4745 46.2493C67.1652 46.8328 67.6421 47.0646 67.5088 47.7425C67.4051 48.2709 66.8553 49.127 66.6809 49.7199C65.8609 49.528 65.9262 50.1776 66.4634 50.4951C66.4235 50.6692 66.3968 50.8499 66.3748 51.0092C66.347 51.2119 66.3398 51.3724 66.3201 51.5175C66.3091 51.6018 66.0613 51.6031 66.0374 51.618C65.6956 51.9674 66.3055 51.8841 66.3333 51.877C66.7051 52.1019 67.5239 52.5133 68.3183 51.9834C68.351 51.9629 68.2998 51.3825 68.5889 51.7641C68.6112 51.7896 68.3723 52.1038 68.7815 52.049C69.1787 51.998 70.0553 52.0948 70.5341 51.6584C70.6624 51.5506 70.837 50.9965 71.2378 51.2502C71.2913 51.2849 71.3053 51.4572 71.389 51.5269C71.6561 51.7487 71.5518 51.16 71.924 51.5589C72.3013 51.9558 72.8611 52.1511 73.3055 51.6049C73.3202 51.5883 73.2821 51.1008 73.4633 51.0363C73.7516 50.9343 74.187 50.8609 74.481 50.7342C74.6199 50.6741 74.418 50.4439 74.4402 50.4288C75.3192 49.8812 76.0836 49.8266 77.1316 49.4752C77.3254 49.4108 77.6833 48.8115 78.1691 48.9314C78.7019 49.0618 78.902 50.5424 79.656 49.815C79.9605 49.5223 79.6425 47.6725 80.6877 48.2137C81.7521 47.4703 82.9956 47.311 84.0536 46.5841C84.1415 46.5242 84.2257 46.4611 84.3081 46.3928C84.36 46.3509 84.3078 45.8123 84.4349 45.7523C84.626 45.6633 84.843 45.8113 84.9843 45.7451C85.5051 45.5096 86.0134 44.9268 85.7521 44.5607L85.8214 44.6285C85.7832 44.6092 85.7453 44.5892 85.7079 44.5683C85.4998 44.4535 85.6838 44.2711 85.4296 44.1351C85.1775 44.002 84.8734 44.2156 84.5831 43.9221C84.3639 43.7002 84.338 42.9796 83.9867 42.7652C83.7438 43.3665 83.4986 43.2564 82.9961 43.2668C82.9003 43.2696 82.9198 43.514 82.871 43.5264C82.6699 43.5815 82.5777 43.3556 82.3829 43.4276C82.3361 43.445 82.2693 43.6559 82.2281 43.6823C81.8759 43.9138 81.5852 43.3177 81.5277 43.2137C81.3211 42.819 81.1118 43.0644 80.9194 42.886C80.722 42.7073 81.0983 42.6278 80.8496 42.4901C80.3317 42.2042 79.6016 42.1052 79.0367 42.0038C78.8118 41.9645 78.9184 42.281 78.885 42.2821C78.4054 42.2807 77.9892 41.8989 77.6312 42.4332C77.6158 42.1048 77.5966 41.9196 77.5676 41.8276C77.5642 41.8268 77.5539 41.8256 77.5504 41.8251C77.404 41.4896 77.2275 42.4589 76.7247 42.1874C76.6751 42.16 76.6421 41.4374 76.8595 41.3445C77.0558 41.2618 77.3195 41.4527 77.5972 41.4007C77.6065 41.4022 77.6345 41.4054 77.6437 41.4075C77.673 41.4032 77.703 41.3955 77.7337 41.3836C77.8064 41.3579 78.2813 40.7533 78.3387 40.7208C78.7865 40.469 78.681 41.5402 78.6923 41.6018C78.835 42.2689 79.4187 41.6295 79.5529 41.6026C80.1633 41.4755 80.623 41.7221 81.138 41.6725C81.4748 41.6424 81.6759 40.9674 81.9259 41.0533C82.7636 41.3494 82.7357 42.3689 83.7763 41.8254C83.9998 41.7131 84.101 40.9264 84.4894 41.718C84.5184 41.769 84.745 42.4512 85.125 42.2323C85.1735 42.2048 85.2594 41.9976 85.3088 41.9981C85.6347 42.004 85.7479 42.249 86.0834 42.3095C86.3297 42.3537 86.6207 42.3974 86.8799 42.5164C87.1577 42.6707 87.7019 43.1666 87.8389 43.4534C88.0052 43.7545 88.1553 44.2024 88.1459 44.689C88.1465 45.2661 87.8165 45.8039 87.5362 46.0244C87.2528 46.2603 87.0164 46.3132 86.9111 46.3548C86.326 46.543 86.2936 47.1133 85.9052 46.9435C85.5405 46.7466 85.5743 46.0919 85.0362 46.1418C85.3116 46.6555 85.569 47.1971 85.8257 47.7249C85.4759 47.9131 85.1423 48.0519 84.8106 48.1782C84.1748 48.4133 83.5236 48.6344 82.9095 48.9469C82.7976 49.0045 83.0487 49.2317 82.9321 49.3008C82.4377 49.592 81.8931 49.6044 81.3951 49.9393C81.0105 50.1993 80.6952 50.7151 80.2938 50.9956C79.7433 50.5177 79.1918 51.0248 78.691 51.1877C78.5164 51.2447 78.4533 51.0777 78.3116 51.0787C77.7751 51.0875 78.2289 51.5278 78.1443 51.6682C77.7809 52.2671 77.1846 51.0738 76.5805 51.3775C76.551 51.3922 76.427 52.2228 76.3885 52.2875C76.147 52.707 76.2308 52.0864 75.9881 52.1342C75.5387 52.2231 75.1973 52.1839 74.7879 52.5783C74.6694 52.694 74.5001 53.2417 74.0893 53.0359C74.036 53.0088 73.9697 52.7823 73.9352 52.7812C73.3248 52.775 73.5724 53.4691 73.3484 53.8212C73.1295 54.1714 72.4531 53.8719 72.3116 53.7649C71.9311 53.4951 72.4537 53.5434 72.4562 53.5022C72.4688 53.0264 72.1495 53.2226 71.8665 53.279C71.5918 52.6086 71.2364 52.7723 71.5729 53.3396C71.6103 53.4016 71.8006 53.2668 71.8665 53.279C71.8572 54.0325 71.4446 54.2659 70.7794 53.7697C70.4756 53.5324 70.5784 53.1333 69.9476 53.4381C69.6567 53.5729 69.8899 54.0292 69.6344 54.2278C69.029 54.6804 68.0458 54.3882 67.1737 54.4094C66.8499 54.4124 67.1504 54.7101 66.9106 54.7163C66.2456 54.7043 65.5349 54.389 64.6665 53.7072C64.5866 53.6387 64.5667 54.034 64.3058 53.7614C63.2789 52.5736 63.4025 51.3796 63.5138 50.6672C63.6235 50.1198 63.7596 49.6438 63.8733 49.1115C63.9818 48.593 64.0516 47.6537 64.231 47.1373C64.5309 46.2483 65.2826 45.2931 65.4684 44.5178C65.5928 44.0072 65.2867 44.013 65.1889 43.7296C65.0004 43.1752 65.9376 42.7209 66.0757 42.6756C66.0791 42.6746 65.9571 43.1147 66.1888 42.9542C66.5242 42.9522 66.0746 42.6814 66.0757 42.6756C66.1621 42.6394 66.6117 41.8489 66.6511 41.6635C66.6699 41.5619 66.4041 41.4869 66.4188 41.4357C66.7764 40.2237 67.4113 39.0582 68.3969 38.0822C68.4166 38.0674 68.6248 38.29 68.6677 38.2534C69.2777 37.7501 69.3667 37.1393 69.7761 36.5037C70.1829 35.876 70.7746 35.583 71.4047 35.8265C71.8542 35.4885 72.7103 35.387 73.1836 35.4066C73.6523 35.4218 73.5975 34.8437 73.6381 34.821C73.8787 34.6979 74.1153 34.6168 74.3454 34.5666C74.9409 34.3962 75.5096 34.5566 76.3308 34.5335C76.817 34.5179 77.7911 34.3815 78.3273 34.3116C78.7527 34.253 79.0163 34.3919 79.4054 34.3106C79.459 34.2999 79.4104 34.0365 79.4269 34.0267C79.8832 33.7237 79.6506 34.3601 79.7387 34.4771C80.0478 34.9048 80.2382 35.1325 80.7981 34.9748C80.9274 34.9386 81.3802 34.0488 81.6322 34.0206C81.9562 33.9854 81.8019 34.3013 82.135 34.2596C82.1637 34.2566 82.1818 34.0524 82.3845 34.0874C83.3236 34.2475 84.3203 34.5535 85.2835 34.776C85.4151 34.8073 85.3256 34.4501 85.5193 34.4913C86.4268 34.6844 87.4112 35.015 88.1946 35.4833C88.3894 35.6006 88.1755 35.7605 88.1959 35.8409C88.3137 36.3242 88.9171 35.9372 88.9891 35.9567C90.6299 36.3673 91.4786 37.4454 92.9909 38.1537C93.0697 38.1863 94.0256 38.0806 93.9499 38.7066C93.9473 38.7496 93.8535 39.3744 94.3014 39.2418C94.3288 39.2332 94.3564 38.89 94.5993 39.1182C94.8381 39.3431 95.3933 39.5528 95.5234 40.0871C95.5675 40.2577 95.4499 40.8945 96.0591 40.859C96.0956 40.8485 97.2783 40.5946 96.9633 41.2604C96.9404 41.3071 96.8251 41.4249 96.7524 41.5515C96.6779 41.7463 96.6396 41.8752 97.157 42.1829C97.3449 42.3216 97.2215 41.8436 97.6827 42.3529C97.8673 42.5857 98.0746 42.9238 98.2087 43.4751C98.3467 44.0088 98.3197 44.7644 98.1268 45.3271C97.7059 46.496 97.2008 46.8768 96.9523 47.329C96.8689 47.484 96.6242 48.2732 96.0958 48.1414C96.0165 48.1197 95.9839 47.8562 95.8081 47.9271C94.9591 48.2599 94.3608 48.6961 93.6216 48.8288C93.3571 48.8756 93.333 48.4581 93.0531 48.4595C92.7662 48.464 92.2526 48.5592 92.0787 48.8199C91.896 49.0842 92.3992 49.5641 92.0348 49.7583C90.6603 50.4929 89.1547 50.7363 87.6939 51.1401C87.5242 51.1866 87.3527 51.2361 87.1796 51.2898C86.9392 51.3644 87.2101 51.509 86.859 51.6345C85.5889 52.0912 83.4383 53.0385 82.1764 52.9536C81.1594 52.8883 82.1923 52.2376 81.4627 52.3159C81.1147 52.3531 80.9872 53.1654 80.9143 53.2138C80.2154 53.6911 79.5713 53.5619 78.9073 53.8839C78.7692 53.9508 79.0032 54.1861 78.8845 54.2399C78.4765 54.4275 78.003 54.4428 77.6064 54.5972C77.4294 54.6669 77.5319 54.8716 77.3622 54.9084C76.9565 54.9989 76.5752 55.0224 76.1238 54.9454C76.0828 54.9383 76.2323 54.5941 75.9376 54.6784C75.4609 54.8154 74.8057 54.8065 74.3281 55.1866C74.1861 55.3004 74.3377 55.7951 73.88 55.5665C73.784 55.5189 73.6879 54.8976 73.4467 55.5381C73.4063 55.6447 72.9438 56.5521 72.468 56.2136C72.3426 56.1246 71.9637 55.7117 71.7932 55.8496C71.7706 55.8701 71.9605 56.1014 71.8072 56.1784C71.2653 56.4454 70.66 56.6055 70.1009 56.8726C69.9516 56.9444 70.2709 57.1454 70.0456 57.2438C69.427 57.5145 68.6027 57.6956 67.9507 57.8042C67.7092 57.844 67.7985 57.5668 67.774 57.5473C67.3774 57.2291 67.3863 57.8221 67.3062 57.8817C66.8079 58.2442 66.3003 58.1213 65.8072 58.347C65.6709 58.4086 65.8512 58.637 65.8301 58.6688C65.6068 58.9847 65.6822 58.4518 65.4806 58.4576C64.9102 58.4737 64.3434 58.6697 63.8212 58.8647C63.6312 58.9362 63.9405 59.171 63.7689 59.2316C62.756 59.5959 61.673 59.8901 60.615 60.023C60.4151 60.0476 60.4661 59.7798 60.4107 59.7385C60.0274 59.4484 59.7839 60.0707 59.7016 60.1473C59.3433 60.492 59.1256 60.3325 58.7663 60.4789C57.1371 61.1461 55.05 61.6256 53.3506 61.9815C53.2096 62.0113 53.0737 62.0398 52.9428 62.0669C50.5266 62.5129 49.1003 62.8439 45.9303 63.0122C45.6747 63.0027 45.9239 63.34 45.6844 63.3313C45.3819 63.3078 45.0818 63.2989 44.4924 63.1031C44.1913 62.993 43.7982 62.8341 43.323 62.4264C42.8164 62.0125 42.2995 61.1634 42.2078 60.3829C42.0742 58.8284 42.5388 58.3888 42.6972 58.0172C42.9005 57.6708 43.0551 57.4804 43.1792 57.3226C43.9593 56.4261 44.331 56.3306 44.7401 56.0818C45.0986 55.8928 45.4166 55.7562 45.734 55.6275C46.3297 55.3884 46.8685 55.2029 47.4115 55.0028C47.5447 54.9546 47.2629 54.7212 47.4686 54.636C47.9001 54.4564 48.4653 54.3162 48.9254 54.2958C49.1474 54.286 48.9324 54.6136 49.1544 54.5987C49.6858 54.5612 50.2115 54.454 50.6976 54.2884C50.9053 54.2172 50.5116 53.9891 50.7888 53.92C52.6894 53.4432 54.5131 53.0179 56.4829 53.0506C56.6155 53.0534 56.8458 53.6559 57.0975 53.4841C57.0853 53.307 57.0456 53.1036 57.0196 52.9168C59.724 52.3015 62.4478 52.0541 65.167 51.6376C65.2823 51.6199 65.0283 51.3209 65.2515 51.2849C66.54 51.077 67.7641 50.7846 69.1402 50.9047C69.2742 50.9165 69.2999 51.5117 69.6673 51.3629C69.7314 51.3362 70.2982 51.1669 70.4304 51.0161C70.448 50.9938 70.2983 50.7376 70.4857 50.7C71.554 50.4899 72.7033 50.376 73.8113 50.3775C73.9916 50.3781 73.8485 50.6976 73.9773 50.7005C74.8752 50.7214 75.8172 50.3528 76.6858 50.4928C77.274 50.5866 77.1415 51.1207 77.5153 51.571C77.568 51.6346 77.9209 51.5933 77.9822 51.8786C78.1368 52.5962 78.0846 53.4148 78.2695 54.1766C78.3087 54.3408 78.754 54.0914 78.5343 54.5349C78.5186 54.5647 78.1975 54.7489 78.1345 54.8977C78.0903 55.0007 78.2389 55.278 78.1382 55.4164C78.0377 55.5547 77.8708 55.3285 77.6967 55.4995C77.5233 55.6722 77.6582 55.9927 77.2769 56.0903ZM75.0653 35.7259C75.4081 35.9741 75.347 34.9384 75.0332 35.2209C75.0173 35.2359 75.0471 35.7138 75.0653 35.7259ZM83.4823 47.7787C82.9177 47.5415 82.9528 48.2697 83.3662 48.4636C83.7788 48.6574 83.6537 47.8504 83.4823 47.7787ZM85.9913 43.6937C86.0545 43.814 86.1391 43.8442 86.227 43.8191C86.3211 43.8713 86.5054 44.0393 86.5518 44.1364C86.7044 44.2443 86.9073 44.3232 87.0742 44.2818C87.2399 44.2464 87.3662 44.0353 87.2873 43.7461C87.1891 43.5406 86.7992 43.1852 86.6001 43.0747C86.5641 43.0149 86.4958 42.9783 86.3868 42.983C86.3506 42.9839 85.9746 43.6623 85.9913 43.6937ZM76.1537 51.9193C76.1607 51.9322 76.4142 51.9076 76.4169 51.8934C76.5015 51.5478 75.9961 51.597 76.1537 51.9193ZM81.8294 42.5114C81.9231 42.7415 82.4046 42.6426 82.293 42.3527C82.1982 42.1169 81.7087 42.2226 81.8294 42.5114ZM90.9513 40.0198C90.9473 40.0353 91.0943 40.1465 91.1389 40.0715C91.2816 39.8285 91.02 39.7553 90.9513 40.0198ZM74.6571 41.5884C75.7269 41.6468 76.3254 42.8788 75.1965 42.7236C74.9902 42.6966 75.6455 42.3414 75.3841 42.2289C74.9011 42.024 74.5784 42.7868 74.0837 42.3781C73.994 42.3033 74.596 41.5821 74.659 41.5867C74.6584 41.5872 74.6578 41.5878 74.6571 41.5884ZM75.3756 36.9449C75.3813 36.958 75.6368 36.9448 75.6423 36.9307C75.7473 36.5892 75.231 36.6156 75.3756 36.9449ZM91.5816 46.0596C91.5592 46.0379 91.0096 46.2249 91.0032 46.2556C90.9149 46.8686 92.0329 46.4898 91.5816 46.0596ZM66.657 49.7244C66.9247 50.0593 66.9073 50.3624 66.464 50.4939C66.5281 50.2461 66.5814 49.9859 66.657 49.7244Z" fill="black"/>
<path d="M94.9878 32.398C96.3804 31.8415 98.2782 31.3158 99.739 30.9757C100.196 30.8689 100.029 31.1171 100.348 31.051C100.97 30.9222 101.502 30.6534 102.125 30.54C102.331 30.5035 102.176 30.86 102.39 30.8154C103.562 30.569 104.611 30.1516 105.781 29.8425C109.748 28.8086 113.604 27.6815 117.736 26.7937C118.716 26.6027 119.642 26.3981 120.916 26.3743C121.534 26.4398 122.471 26.201 123.746 27.4491C124.309 28.0945 124.435 28.8365 124.456 29.2967C124.476 29.779 124.419 30.1275 124.362 30.4455C124.178 31.3626 123.889 32.0741 123.613 32.8157C123.107 34.1494 122.56 35.5297 122.201 36.812C122.137 37.0437 122.425 36.9908 122.43 37.0408C122.502 37.826 122.092 37.431 121.874 37.8509C121.012 39.5178 120.297 41.4446 119.779 43.1515C119.559 43.8776 120.296 43.3388 119.767 43.9569C119.73 44 119.542 43.7261 119.443 43.9113C119.22 44.3314 118.956 45.1861 118.809 45.52C118.525 46.165 118.487 46.2729 118.252 46.8959C117.929 47.7431 117.422 48.709 117.137 49.6414C117.077 49.8408 117.434 49.6815 117.361 50.008C117.289 50.3337 116.958 51.1455 116.791 51.4014C116.625 51.6554 116.465 51.4601 116.4 51.4914C115.854 51.7418 116.043 52.8978 116.01 53.0273C115.402 55.339 114.37 57.1272 113.615 59.2138C113.513 59.4982 113.406 59.8086 113.309 60.099C113.288 60.163 113.281 60.2012 113.287 60.186C113.289 60.1744 113.307 60.128 113.307 59.9765C113.306 59.938 113.304 59.8922 113.296 59.8366C113.286 59.7553 113.254 59.5841 113.155 59.3945C113.058 59.2034 112.864 58.9717 112.609 58.8291C112.485 58.7574 112.347 58.7067 112.231 58.6803C112.14 58.6589 112.054 58.6484 111.977 58.6449C111.361 58.6573 111.294 58.8225 111.262 58.8148C111.221 58.8392 111.213 58.846 111.218 58.84C111.229 58.8275 111.262 58.7956 111.309 58.7461C111.475 58.5681 111.7 58.2958 111.9 58.0441C112.313 57.5225 112.719 56.9815 113.116 56.4764C114.288 54.9819 115.362 53.763 116.428 52.2417C116.54 52.0825 116.141 52.0766 116.277 51.8814C117.735 49.7886 119.215 47.7443 120.846 45.7816C121.01 45.5845 121.058 46.0186 121.236 45.8315C122.318 44.6873 124.186 42.9679 123.673 41.5002C124.311 40.6531 125.069 39.6253 125.808 38.9811C126.281 38.5709 126.211 39.2336 126.52 38.536C126.59 38.3793 126.24 38.4083 126.362 38.1853C126.434 38.052 126.511 37.9198 126.589 37.7887C127.083 36.9692 127.699 36.175 128.151 35.3579C128.257 35.1641 128.025 35.0654 128.027 34.9888C128.053 34.3496 129.063 34.0102 129.214 33.8911C130.37 32.9505 130.953 32.0666 131.927 31.0755C132.156 30.8475 131.652 30.8874 131.867 30.6577C132.476 30.0334 133.073 29.4273 134.069 28.8669C134.324 28.7337 134.61 28.5973 135.04 28.5146C135.447 28.4305 136.123 28.4515 136.665 28.8034C137.718 29.5773 137.678 30.2883 137.782 30.755C137.828 31.2031 137.482 30.8481 137.485 31.0542C137.469 31.7849 137.833 31.9674 137.874 32.4896C137.88 32.573 137.875 32.6648 137.858 32.7675C137.831 32.924 137.593 32.8293 137.566 32.857C137.141 33.2757 137.697 33.6711 137.701 33.7901C137.752 35.2135 136.992 35.9713 136.833 37.2522C136.814 37.4065 137.181 37.1229 137.107 37.5528C136.727 39.7401 136.12 41.9366 135.491 44.0303C135.444 44.1852 135.414 44.2951 135.394 44.3869C135.363 44.4771 135.404 44.564 135.313 44.3394C135.285 44.2366 135.011 43.9456 134.79 43.9116C134.566 43.8595 134.482 43.9079 134.47 43.9137C134.448 43.9362 134.552 43.9111 134.666 43.8555C134.952 43.7132 134.891 44.0262 134.92 44.0416C135.508 44.1726 135.371 43.5074 135.442 43.4197C136.124 42.6214 137.208 42.2018 137.216 41.177C140.401 38.2517 142.139 34.9507 146.367 31.8303C146.746 31.7374 147.142 31.6499 147.708 31.8276C148.278 32.0065 148.64 32.5697 148.726 32.9499C148.75 33.0375 148.429 32.998 148.465 33.1452C148.601 34.0183 148.571 34.293 148.738 34.556C148.882 34.8266 149.121 35.0269 149.318 35.5875C149.418 35.8902 148.615 36.5231 148.552 36.5677C148.326 36.7669 147.956 36.4305 147.905 36.502C147.494 37.0812 148.912 37.3079 148.682 38.195C148.672 38.222 148.449 38.0382 148.404 38.1057C148.264 38.3136 148.304 38.5618 148.154 38.7612C147.809 39.208 147.093 39.1856 147.248 40.0594C147.268 40.1705 148.091 40.2627 147.814 41.0138C147.704 41.3132 147.283 42.65 147.109 43.0045C146.937 43.3576 146.773 43.0217 146.753 43.0446C146.095 43.9347 146.086 43.5066 145.434 43.8484C144.787 44.1827 145.984 44.4324 146.047 44.6752C146.111 44.9121 145.602 45.5619 145.454 45.7085C145.305 45.8538 145.214 45.5869 145.113 45.7254C144.439 46.6893 145.548 46.3713 145.637 46.7585C145.676 46.9194 145.676 47.0721 145.655 47.1897C145.616 47.4252 145.444 47.6321 145.286 47.8766C145.127 48.1088 144.994 48.427 145.056 48.6044C145.078 48.672 145.182 48.549 145.192 48.4906C145.197 48.4838 145.199 48.4784 145.2 48.4759C145.189 48.4591 145.482 48.514 145.728 48.4597C145.993 48.4097 146.277 48.2973 146.588 47.9932C146.685 47.9002 146.977 47.1175 147.551 47.2195C147.633 47.2349 147.605 47.5198 147.895 47.3935C148.344 47.1966 149.06 46.7577 149.442 46.383C149.707 46.1191 149.144 46.0748 149.59 45.8875C149.79 45.8018 149.604 46.2117 149.972 46.0337C150.338 45.859 151.132 45.23 151.431 44.9798C151.734 44.7287 151.39 44.6442 151.403 44.6093C151.477 44.4123 151.968 43.8395 152.02 43.7967C154.531 41.6898 157.127 40.0051 159.403 37.7166C159.582 37.537 159.258 37.4325 159.283 37.4028C159.838 36.7262 159.866 37.7679 160.49 37.5523C160.019 37.1695 160.356 37.008 160.76 36.5452C160.954 36.3221 160.679 36.2601 160.682 36.2244C160.762 35.6696 161.294 35.7974 161.415 35.8125C161.861 35.8672 161.814 35.3561 162.114 35.3898C162.414 35.4222 162.313 35.9779 162.738 35.5748C162.712 35.3056 162.011 35.1918 162.273 34.8221C163.202 33.5144 165.523 31.8208 166.635 30.8722C166.687 30.8304 166.724 30.7935 166.747 30.7664C166.811 30.6585 166.759 30.8121 166.804 30.8456C166.828 30.8649 166.759 30.7914 166.676 30.7522C166.503 30.6627 166.298 30.6115 166.109 30.5759C165.944 30.5457 165.773 30.5242 165.567 30.5085C164.282 30.5083 164.809 30.8855 164.124 31.2716C163.447 31.7143 163.436 30.6355 163.244 30.4699C163.044 30.312 163.003 30.5746 162.813 30.5256C162.619 30.4787 162.874 30.2011 162.512 30.3133C162.139 30.4222 161.425 31.251 161.439 31.5163C161.452 32.076 162.08 32.2887 161.205 32.6146C161.154 32.6341 161.158 32.3129 160.97 32.3999C160.429 32.6539 159.903 32.9595 159.39 33.2924C158.529 33.8421 157.842 34.6567 157.299 35.553C157.182 35.7479 156.993 35.4391 156.921 35.5552C156.218 36.8136 156.89 36.5332 157.241 37.3613C156.563 37.0229 155.972 37.3235 155.832 38.4351C155.762 39.0962 156.103 39.0086 156.312 39.4309C156.375 39.5536 156.147 40.0054 156.304 40.0843C156.817 40.34 157.342 39.9248 157.188 40.9413C157.182 40.9865 156.895 40.8693 156.893 41.0263C156.89 41.3141 156.941 41.5241 157.017 41.6885C157.104 41.8358 157.241 41.8777 157.365 41.8912C157.494 41.9045 157.6 41.9047 157.845 41.9936C158.354 42.2148 159.916 42.6839 160.924 42.7587C160.876 43.6005 161.855 43.4323 162.259 42.8526C162.922 42.8809 163.641 42.8433 164.294 42.9162C164.514 42.9411 164.372 43.186 164.4 43.212C164.837 43.6195 165.123 43.0515 165.266 43.0274C166.844 42.7897 168.119 43.1945 169.622 42.7611C169.673 42.7455 169.765 42.1605 170.163 42.5832C170.189 42.6124 169.698 42.8823 170.401 42.8967C170.999 42.9087 171.999 43.1211 172.901 43.0417C173.054 43.0256 173.222 42.983 173.358 42.9185C173.584 42.8271 173.954 42.2638 174.488 42.4706C174.561 42.4991 174.551 42.6793 174.666 42.7386C175.053 42.9174 174.972 42.3169 175.486 42.6461C175.993 42.9778 176.868 42.997 177.585 42.2107C177.607 42.1871 177.598 41.6601 177.863 41.5179C178.306 41.2814 178.954 41.0065 179.393 40.7295C179.605 40.5952 179.315 40.4339 179.349 40.4064C180.662 39.3886 181.788 38.9363 183.317 38.0062C183.596 37.8372 184.133 36.9724 184.834 36.8544C185.594 36.7299 185.853 38.3032 186.954 37.0863C187.406 36.5894 186.988 34.6548 188.482 34.7176C190.15 33.1992 192.116 32.3303 193.722 30.7215C193.794 30.6495 193.75 30.053 193.947 29.915C194.242 29.7091 194.533 29.7871 194.746 29.648C195.373 29.2436 195.874 28.7674 196.417 28.3102C196.419 28.3089 196.425 28.3052 196.426 28.304C196.681 28.1239 196.935 27.9525 197.2 27.7997C197.533 27.6073 197.54 27.8893 197.949 27.6528C198.357 27.4165 198.431 26.9934 199.059 26.7884C199.521 26.643 200.274 26.9507 200.844 26.691C200.519 26.1305 200.91 25.9058 201.463 25.3679C201.569 25.2641 201.318 25.153 201.363 25.0937C201.551 24.8424 201.874 24.8646 202.034 24.6188C202.073 24.5594 201.961 24.3689 201.986 24.3098C202.217 23.7875 203.104 23.8312 203.266 23.834C203.857 23.8609 203.909 23.4932 204.3 23.4087C204.685 23.3273 204.294 23.7528 204.705 23.5967C205.577 23.2606 206.562 22.6292 207.371 22.1609C207.695 21.9723 207.325 21.8485 207.367 21.8156C207.99 21.3597 208.819 21.2376 208.888 20.5164C210.108 21.5655 209.217 20.1522 210.317 19.8691C210.406 19.8459 210.859 20.4154 210.624 20.6724C210.384 20.9325 209.845 20.9846 209.53 21.3589C209.452 21.4489 209.255 22.345 209.205 22.4219C208.789 23.0368 208.172 22.1533 208.108 22.1224C207.438 21.7784 207.159 22.7887 207.006 22.9382C206.334 23.606 205.596 23.8733 205.018 24.4133C204.65 24.7594 204.956 25.3972 204.619 25.5761C203.462 26.1941 202.56 25.5938 201.952 26.964C201.823 27.2557 202.439 27.7807 201.322 27.7558C201.257 27.751 200.349 27.6585 200.198 28.1629C200.178 28.2271 200.297 28.4172 200.249 28.4685C199.926 28.8105 199.575 28.8173 199.205 29.1464C198.823 29.4827 198.4 29.8941 197.875 30.1302C197.797 30.1654 197.701 30.1846 197.598 30.1938L197.741 30.0968C197.435 30.1478 197.06 30.1075 196.916 30.1184C196.374 30.154 196.268 30.8345 195.826 30.7185C195.382 30.6015 195.506 29.8309 194.766 30.0921C195.092 30.5761 195.398 31.0939 195.712 31.5905C194.379 32.5563 192.967 33.3742 191.654 34.3817C191.493 34.5062 191.847 34.6335 191.679 34.7733C190.959 35.3696 190.176 35.6722 189.454 36.3151C188.892 36.8156 188.429 37.5667 187.842 38.0967C187.061 37.8409 186.261 38.699 185.526 39.1461C185.273 39.3003 185.19 39.141 184.98 39.2179C184.202 39.504 184.849 39.7686 184.723 39.9703C184.174 40.836 183.348 39.7883 182.456 40.4329C182.406 40.4689 182.204 41.4594 182.144 41.5508C181.765 42.1457 181.918 41.4039 181.556 41.5778C180.897 41.8915 180.379 42.0215 179.754 42.6432C179.571 42.8263 179.264 43.5232 178.665 43.464C178.586 43.4568 178.503 43.234 178.449 43.2479C177.507 43.5019 177.825 44.1608 177.415 44.6419C177.015 45.1209 175.922 45.0176 175.707 44.9331C175.106 44.7472 176.001 44.6527 176.007 44.6036C176.121 44.0773 175.562 44.3975 175.058 44.5183C174.769 43.8578 174.128 44.0772 174.531 44.6358C174.575 44.6993 174.961 44.5176 175.058 44.5183C174.872 45.2966 173.995 45.6895 172.899 45.1028C172.875 45.0831 172.851 45.0627 172.827 45.0416C172.474 44.7309 172.802 44.3667 171.742 44.5025C171.254 44.5644 171.444 45.0619 171.022 45.2003C170.048 45.5161 168.78 45.066 167.773 45.1541C167.409 45.1861 167.768 45.4537 167.52 45.4849C166.859 45.5687 166.266 45.3735 165.604 45.4881C165.543 45.4989 165.697 45.7823 165.486 45.789C163.907 45.8417 162.526 45.6878 160.796 45.6288C159.965 45.5956 158.409 45.6825 157.237 45.297C156.77 45.1401 156.214 44.9144 155.609 44.3978C154.994 43.8995 154.474 42.9378 154.411 42.1649C154.336 41.1214 154.411 40.2532 154.374 39.5104C154.347 38.6005 154.062 38.7786 153.904 38.3551C153.589 37.514 154.584 36.2299 154.75 36.1024C154.748 36.0997 154.609 36.9054 154.859 36.5219C155.217 36.3621 154.748 36.1135 154.75 36.1024C154.82 35.9952 155.477 34.4634 155.631 34.1475C155.694 33.9705 155.408 33.9302 155.447 33.838C155.912 32.7712 156.669 31.7455 157.651 30.9727C158.454 30.3279 159.331 29.7531 160.301 29.2774C160.335 29.2641 160.437 29.5545 160.515 29.5206C161.629 29.06 162.17 28.3998 163.187 27.8375C164.196 27.2823 165.389 27.2107 166.21 27.8119C166.299 27.8143 166.392 27.8211 166.487 27.8326C167.055 27.9281 167.628 28.021 168.494 28.752C168.911 29.0833 169.521 30.0732 169.358 30.9838C169.214 31.8436 168.851 32.1625 168.648 32.3858C168.527 32.5031 168.433 32.59 168.354 32.6703C168.095 32.9483 168.359 33.3183 168.336 33.3548C167.496 34.6714 166.626 35.0321 165.445 36.0725C164.882 36.567 163.856 37.6441 163.304 38.2433C162.869 38.7177 162.491 38.8786 162.115 39.3441C162.064 39.4069 162.301 39.5454 162.29 39.5694C162.016 40.2472 161.817 39.5596 161.639 39.5674C160.991 39.5958 160.621 39.6341 160.124 40.3491C160.01 40.5136 160.209 41.5779 159.977 41.859C159.677 42.2203 159.586 41.8572 159.28 42.239C159.253 42.2717 159.395 42.4187 159.164 42.6126C158.096 43.5105 156.872 44.4232 155.77 45.3818C155.618 45.5133 156.024 45.5943 155.807 45.7881C154.796 46.6918 153.626 47.6328 152.459 48.3365C152.174 48.5071 152.201 48.2007 152.103 48.1907C151.507 48.1341 151.356 48.9805 151.273 49.0546C150.5 49.7611 149.684 50.2937 148.76 50.77C148.268 51.0198 147.806 51.2355 147.142 51.4674C146.831 51.57 146.454 51.695 145.895 51.771C145.397 51.8072 144.427 51.9916 143.185 51.1108C142.498 50.5569 142.328 50.1255 142.166 49.8019C142.021 49.4763 141.95 49.2212 141.893 48.9902C141.786 48.5317 141.749 48.1573 141.729 47.7845C141.72 47.6419 141.505 46.937 141.621 46.1999C141.656 45.8718 141.771 45.5731 142.036 45.4407C142.083 45.4071 142.753 45.1047 142.511 44.6097C142.496 44.577 142.133 44.7734 142.317 44.2904C142.496 43.8228 142.564 43.0073 143.073 42.4738C143.233 42.3051 143.919 42.0059 143.692 41.2769C143.677 41.2265 143.02 40.0113 143.779 39.9034C143.903 39.8864 144.585 40.1606 144.445 39.3509C144.417 39.1969 144.187 39.3884 144.197 39.0107C144.21 38.4325 144.607 37.7812 144.46 37.0626C144.435 36.9326 144.075 36.3489 144.523 36.0798C144.593 36.0361 144.806 36.2022 144.877 36.0118C145.043 35.573 145.123 35.1053 145.167 34.7128C145.22 34.3391 145.191 33.9336 145.29 34.0721C145.338 34.1443 145.471 34.1729 145.597 34.1656C145.738 34.1725 145.818 34.1229 146.062 34.3587C146.224 34.5334 146.75 34.8181 147.066 34.805C147.367 34.8081 147.396 34.7502 147.367 34.7884C147.727 34.6624 147.763 34.6091 147.793 34.614C147.815 34.6152 147.817 34.6363 147.816 34.667C147.767 34.9536 148.408 35.2121 148.132 35.549C146.648 37.3986 144.553 39.3497 142.702 41.3429C142.425 41.6436 142.819 41.5396 142.42 41.993C141.683 42.8288 140.696 44.0112 139.593 45.1147C139.026 45.6787 138.444 46.2174 137.743 46.7253C137.383 46.9787 137.048 47.2139 136.411 47.5095C136.134 47.6233 135.68 47.8407 134.93 47.8998C134.445 47.937 133.789 47.8828 133.128 47.5348C132.435 47.1907 131.906 46.4867 131.73 46.053C131.462 45.4334 131.459 44.9773 131.461 44.745C131.471 44.5328 131.498 44.3803 131.526 44.2594C131.582 44.0231 131.646 43.8938 131.691 43.8693C131.784 43.8037 131.851 43.8709 131.902 44.0547C131.955 44.2205 132.015 44.4151 132.071 44.3979C132.099 44.3897 132.124 44.3277 132.157 44.1959C132.191 44.0506 132.23 43.8934 132.286 43.6893C132.321 43.559 132.34 43.4239 132.35 43.2831C132.341 42.7896 131.944 42.2317 131.953 42.1156C132.041 40.7662 132.575 39.96 132.743 38.8035C132.777 38.5655 132.436 38.7272 132.468 38.5258C132.574 37.8388 132.857 37.1633 132.959 36.5278C133.004 36.2414 132.771 36.2525 132.837 35.9972C132.991 35.39 133.173 34.8722 133.458 34.3228C133.484 34.2713 133.717 34.6671 133.784 34.2244C133.862 33.6876 134.039 33.0637 134.003 32.4972C133.992 32.298 133.96 32.1108 133.898 31.9537C133.821 31.782 133.302 31.7533 133.628 31.5662C133.664 31.5527 133.833 31.5115 133.925 31.4815C133.972 31.4679 133.999 31.4534 133.989 31.4737C133.987 31.5015 133.909 31.5368 133.945 31.8359C133.955 31.8769 133.97 31.9882 134.112 32.1977C134.244 32.401 134.6 32.7295 135.059 32.8871C135.516 33.05 135.904 33.0355 136.094 33.0223C136.292 33.0055 136.356 32.9885 136.365 32.9755C136.353 32.9711 136.278 32.9644 136.175 32.9152C136.056 32.8465 135.535 32.6011 135.38 32.8414C135.362 32.8742 135.649 32.9923 135.505 33.1537C134.991 33.7284 134.335 34.3794 133.802 35.1261C133.661 35.3251 134.114 35.2399 133.899 35.5304C133.306 36.3323 132.466 37.2866 131.796 38.0479C131.55 38.3268 131.509 37.9796 131.472 37.9858C130.872 38.092 131.182 38.6386 131.126 38.7739C130.873 39.3708 130.501 39.7543 130.159 40.1875C130.009 40.3783 129.864 40.5786 129.734 40.8087C129.614 41.0212 129.935 41.0296 129.928 41.0833C129.842 41.6338 129.647 41.0516 129.427 41.2824C128.806 41.9298 128.266 42.7647 127.792 43.5227C127.617 43.8024 128.086 43.6734 127.926 43.9226C126.984 45.4 125.928 46.8834 124.812 48.1886C124.601 48.4338 124.517 48.1296 124.434 48.1531C123.851 48.3136 123.9 49.1678 123.851 49.3257C123.632 50.0413 123.302 50.1391 122.973 50.6784C121.375 53.3036 119.076 56.2865 117.22 58.5916C116.638 59.3134 116.08 59.9809 115.481 60.652C115.169 60.9989 114.9 61.2959 114.48 61.7073C114.399 61.7844 114.246 61.9311 114.107 62.0478C114.07 62.0789 114.034 62.109 113.993 62.1425C113.934 62.1901 113.871 62.2392 113.8 62.2912C113.729 62.3432 113.649 62.3983 113.553 62.4578C113.443 62.5203 113.397 62.565 113.05 62.7143C112.741 62.8292 112.264 63.021 111.434 62.897C111.04 62.8533 110.258 62.5248 109.844 62.0622C109.398 61.6004 109.204 61.1064 109.114 60.7537C109.017 60.3237 109.04 60.3191 109.026 60.1672C109.02 60.0447 109.022 59.9392 109.027 59.8453C109.037 59.6578 109.06 59.5147 109.084 59.3903C109.165 59.0081 109.219 58.8843 109.295 58.674C109.941 57.0611 110.572 55.502 111.198 53.7445C111.274 53.5312 110.892 53.6315 110.954 53.4468C111.771 51.05 112.77 48.7734 113.567 46.3803C113.633 46.1842 113.243 46.3563 113.339 46.0377C113.534 45.3836 113.85 44.5839 114.181 43.9723C114.341 43.6751 114.431 44.1869 114.587 43.8856C114.952 43.183 115.264 42.4002 115.494 41.6268C115.591 41.2972 115.12 41.6762 115.27 41.2563C116.278 38.3942 117.215 35.5842 118.545 32.8222C118.636 32.6321 119.296 32.6575 119.317 32.1955C119.16 32.1096 118.962 32.0479 118.787 31.9764C118.849 31.765 118.912 31.555 118.974 31.3465C119.157 30.7362 119.338 30.1364 119.425 29.736C119.471 29.5525 119.466 29.3904 119.472 29.5926C119.482 29.6956 119.498 29.9319 119.682 30.3005C119.857 30.6675 120.253 31.0509 120.539 31.199C121.135 31.4928 121.142 31.3712 121.054 31.3863C120.956 31.3783 120.742 31.3858 120.504 31.4106C120.028 31.4589 119.442 31.5619 118.855 31.6809C117.399 31.9785 115.863 32.3702 114.338 32.8015C114.162 32.8516 114.561 33.0854 114.219 33.1845C112.231 33.7636 110.324 34.4552 108.181 34.7849C107.97 34.818 107.889 34.2221 107.323 34.497C107.222 34.5462 106.347 34.9096 106.152 35.1077C106.126 35.1363 106.375 35.3465 106.088 35.4475C104.418 36.03 102.633 36.5474 100.896 36.9412C100.617 37.004 100.813 36.6295 100.613 36.6718C99.1925 36.9751 97.7694 37.6816 96.3733 37.8629C95.4384 37.9832 95.6037 37.3926 94.9792 37.0722C94.8908 37.0271 94.3435 37.1968 94.2236 36.9297C93.9209 36.2584 93.9319 35.4098 93.578 34.7046C93.5023 34.5526 92.8306 34.9661 93.1341 34.4373C93.1557 34.4015 93.6415 34.0983 93.7282 33.9243C93.7888 33.8038 93.5323 33.5768 93.6788 33.3997C93.8254 33.2227 94.1068 33.391 94.3681 33.1533C94.6286 32.9141 94.3882 32.6387 94.9878 32.398ZM166.277 33.8166C165.713 33.9619 166.371 34.7658 166.601 34.2067C166.611 34.1785 166.306 33.8085 166.277 33.8166ZM192.506 32.7416C191.699 32.7725 191.737 33.582 192.324 33.5855C192.908 33.5904 192.752 32.731 192.506 32.7416ZM197.855 28.4642C197.011 28.5628 197.679 29.8776 198.226 29.1897C198.258 29.1503 197.904 28.4586 197.855 28.4642ZM97.0993 36.2196C97.0884 36.2087 96.6928 36.3255 96.6877 36.3416C96.5828 36.7231 97.3737 36.4892 97.0993 36.2196ZM203.504 24.5744C203.188 24.5335 202.72 25.0869 203.104 25.1428C203.411 25.1886 203.893 24.6276 203.504 24.5744ZM144.64 48.8924C144.631 48.8751 144.521 48.5701 144.447 48.5982C144.149 48.6873 144.524 49.2167 144.64 48.8924ZM213.511 18.75C213.156 18.8796 212.821 18.9586 212.52 19.0066L212.531 19.0004C211.513 19.2237 210.954 18.7795 212.021 18.1941C212.029 18.1884 212.055 18.1736 212.064 18.1686C212.111 18.1452 212.16 18.1221 212.212 18.0993C212.372 18.0307 212.264 18.1785 212.161 18.3464C212.154 18.3501 212.135 18.361 212.129 18.3651C212.043 18.5531 211.942 18.7661 212.165 18.6987C212.215 18.6832 212.263 18.664 212.305 18.6438C212.308 18.6421 212.316 18.6376 212.318 18.636C212.981 18.3666 213.258 17.5839 214.103 17.6841C214.264 17.7041 213.59 18.7177 213.509 18.7527C213.51 18.7518 213.511 18.7509 213.511 18.75ZM165.208 33.1151C165.191 33.112 164.886 33.3835 164.888 33.4002C164.953 33.7914 165.569 33.2442 165.208 33.1151ZM147.159 32.1396C147.151 32.1328 147.057 32.1264 146.924 32.1411C146.81 32.1522 146.659 32.1822 146.503 32.2315C146.374 32.2749 146.293 32.3281 146.21 32.3843C146.157 32.4205 146.108 32.4582 146.065 32.4938C145.977 32.5674 145.924 32.6206 145.925 32.628C145.928 33.0136 146.272 32.8223 146.642 32.6441C146.987 32.5133 147.42 32.4214 147.159 32.1396ZM160.939 42.7817C161.389 42.4661 161.898 42.4342 162.257 42.8522C161.809 42.827 161.378 42.8169 160.939 42.7817Z" fill="black"/>
<path d="M158.792 20.6529C158.971 20.4838 159.285 20.4615 159.545 20.4994C159.627 20.5109 159.662 20.6948 159.721 20.7104C159.837 20.7407 159.887 20.6236 160.007 20.667C160.047 20.6822 160.12 20.9668 160.159 20.9766C160.375 21.0282 160.507 20.8954 160.7 20.8842C161.653 20.8295 162.519 20.5986 163.417 20.3791C163.713 20.3066 164.152 20.4141 164.398 20.1902C164.426 20.1638 164.311 19.9352 164.309 19.913C164.289 19.5736 164.449 20.0651 164.54 20.1021C164.902 20.2475 165.202 20.1519 165.415 19.959C165.506 19.8763 165.209 19.4493 165.423 19.6698C165.438 19.6846 165.512 19.947 165.553 19.962C165.643 19.9955 165.751 19.8995 165.811 19.8985C165.926 19.898 165.941 19.8888 166.036 19.8537C166.167 19.8078 166.37 19.8712 166.485 19.7583C166.509 19.7334 166.365 19.4916 166.395 19.4287C166.424 19.3659 166.557 19.3375 166.623 19.3813C166.689 19.4251 166.754 19.6348 166.78 19.6782C167 20.0453 166.923 19.4446 166.936 19.4237C167.18 19.0582 167.593 19.2506 167.909 19.121C168.148 19.0223 168.363 18.8159 168.596 18.737C168.874 18.6444 169.162 18.6893 169.415 18.5579C169.442 18.5443 169.286 18.255 169.319 18.2378C169.666 18.0549 170.037 17.9416 170.48 17.9982C170.524 18.0042 170.587 18.2887 170.638 18.3106C170.947 18.4389 171.513 18.8187 171.168 17.6096C171.334 17.5938 171.536 17.5652 171.765 17.7432C171.913 17.8577 171.949 18.1812 172.003 18.0143C172.016 17.977 171.88 17.7366 171.907 17.6999C172.018 17.5456 172.218 17.5593 172.312 17.3672C172.331 17.3275 172.23 17.1042 172.221 17.0598C172.156 16.6994 172.502 17.1966 172.544 17.2255C172.867 17.439 172.964 17.2621 173.152 17.1927C173.196 17.1767 173.019 16.8933 173.056 16.867C173.253 16.7341 173.486 16.6678 173.752 16.7157C173.811 16.7269 173.876 17.0041 173.91 17.0227C174.059 17.1016 173.877 16.6031 174.016 16.6694C174.044 16.6828 174.126 16.9093 174.14 16.9321C174.356 17.2908 174.179 16.7284 174.189 16.7104C174.304 16.4702 174.66 16.9859 174.805 16.8311C174.822 16.812 174.657 16.5516 174.712 16.5151C175.078 16.2708 175.533 16.1701 176.024 16.2272C176.1 16.2358 176.145 16.4647 176.159 16.489C176.393 16.8678 176.205 16.3075 176.216 16.2787C176.312 16.0646 176.653 16.457 176.486 15.7652C177.251 15.7058 177.76 15.0598 178.67 15.3524C178.681 15.3554 178.781 15.6285 178.803 15.6335C179.07 15.6958 178.852 15.2983 178.766 14.7343C178.761 14.701 178.777 14.7069 178.806 14.7358C178.898 14.8299 179.119 15.1691 179.141 15.2004C179.246 15.3512 179.383 15.7625 179.408 15.7896C179.609 16.0009 179.026 14.6967 179.148 14.6429C179.153 14.6434 179.242 14.8916 179.262 14.9111C179.327 14.9725 179.317 14.8628 179.385 14.9323C179.54 15.0932 179.842 15.7187 179.792 15.2999C179.785 15.2458 179.44 14.5122 179.565 14.4992C179.616 14.4947 179.803 14.3975 179.878 14.4221C179.953 14.4464 180.021 14.7019 180.029 14.7106C180.315 14.9624 180.317 15.1179 180.596 15.5538C180.874 15.9878 180.366 14.8844 180.341 14.7472C180.317 14.6102 180.538 14.8241 180.604 14.9032C180.67 14.9824 180.704 15.1487 180.75 15.1897C181.053 15.4569 180.576 14.6079 180.549 14.4089C180.486 13.9378 180.944 14.7206 181.089 14.7526C181.129 14.7612 181.022 14.5843 181.04 14.5551C181.114 14.4422 181.294 14.6701 181.309 14.3814C181.312 14.3343 181.188 13.7965 181.412 14.132C181.444 14.1804 181.51 14.3967 181.575 14.4228C181.672 14.4625 181.815 14.4525 181.856 14.352C181.886 14.2775 181.675 13.967 181.788 14.042C181.839 14.0756 181.872 14.2978 181.96 14.3444C182.048 14.3909 182.184 14.3196 182.236 14.2879C182.287 14.2566 182.143 14.0139 182.139 13.9947C182.122 13.884 182.17 13.7141 182.179 13.7103C182.624 13.4727 183.244 13.7109 183.627 13.3637C183.658 13.3368 183.511 13.0785 183.514 13.0716C183.583 12.904 183.816 13.6626 184.009 13.8636C183.747 13.3232 183.841 13.3996 183.898 13.3011C183.926 13.2529 183.806 13.0519 183.8 13.0285C183.714 12.6797 183.946 13.0748 183.996 13.1546C184.18 13.4479 184.054 13.0595 184.177 13.2553C184.299 13.4496 184.378 13.7851 184.457 13.7438C184.39 13.5382 184.095 13.0557 184.118 12.9448C184.206 12.5254 184.824 12.7244 185.029 12.6791C185.233 12.634 185.278 12.5691 185.419 12.589C185.672 12.6251 185.425 12.2808 185.465 12.0512C185.505 11.8214 185.883 12.7766 185.995 12.9676C186.106 13.1587 186.028 12.9448 186.101 13.0442C186.174 13.1437 186.192 13.3009 186.262 13.3184C186.331 13.3361 186.301 12.9163 186.22 12.6996C186.048 12.2406 185.767 11.8068 185.977 11.9068C185.989 11.9128 186.08 12.168 186.121 12.1788C186.44 12.2569 186.685 12.1539 186.998 12.2073C187.04 12.2151 187.142 12.499 187.169 12.5066C187.444 12.5868 187.155 12.1648 187.017 11.6077C187.318 12.2923 187.577 12.6754 187.725 12.6085C187.814 12.5685 187.655 12.2826 187.612 12.0477C187.599 11.977 187.759 12.1481 187.703 12.0046C187.52 11.5353 187.216 11.0585 187.463 11.1868C187.475 11.1932 187.575 11.4502 187.604 11.4541C187.797 11.4813 187.587 10.9995 187.715 10.8654C187.815 10.7609 188.179 10.9381 188.343 10.9148C188.714 11.6689 188.763 11.4295 188.557 10.8844C188.657 10.8611 188.744 10.7806 188.867 10.8084C188.91 10.8176 188.999 11.045 189.015 11.0666C189.259 11.4056 189.045 10.8822 189.055 10.8523C189.172 10.5525 189.54 10.8449 189.551 10.3695C189.552 10.3524 189.297 9.82691 189.546 10.1783C189.563 10.2026 189.617 10.4734 189.722 10.4426C189.825 10.4128 190.152 10.5961 190.157 10.2884C190.16 10.2136 190.022 9.75118 190.257 10.0457C190.289 10.0858 190.358 10.239 190.413 10.315C190.591 10.5569 190.338 10.0235 190.62 10.4417C190.901 10.8599 191.175 11.1403 191.148 10.7627C191.148 10.7515 190.96 10.3215 191.005 10.3059C191.077 10.2816 191.219 10.3161 191.287 10.2759C191.32 10.2566 191.161 10.0123 191.164 10.0045C191.183 9.97038 191.204 9.94317 191.226 9.92161C191.384 9.77395 191.628 9.8787 191.885 9.84851C191.939 9.84275 191.87 9.42735 192.108 9.65317C192.367 9.9001 192.973 11.1959 193.025 10.7759C193.048 10.6063 192.251 8.97804 192.875 9.69886C193.054 9.32575 193.579 9.56961 193.699 9.10409C193.705 9.08339 193.48 8.62883 193.514 8.61565C193.565 8.59668 193.715 8.78098 193.757 8.77327C193.931 8.74695 193.947 8.49693 194.094 8.43896C194.15 8.41642 194.266 8.63225 194.333 8.605C194.399 8.57748 194.263 8.28301 194.428 8.36022C194.553 8.41949 194.976 8.92726 195.099 8.9373C194.744 8.39548 194.807 8.36992 194.809 8.16274C194.809 8.12267 194.664 7.94845 194.658 7.91982C194.629 7.79925 194.767 7.93223 194.73 7.80431C194.722 7.77352 194.599 7.58935 194.585 7.55382C194.461 7.24472 194.834 7.59438 194.898 7.65548C195.144 7.88687 195.013 7.62789 195.133 7.70354C195.253 7.77898 195.272 7.96158 195.372 7.98927C195.579 8.04597 195.707 7.91697 195.832 7.84593C195.88 7.81698 195.684 7.59278 195.687 7.58294C195.743 7.4555 196.015 7.65141 195.744 7.12544C196.655 8.34583 195.72 6.96417 196.03 7.12382C196.055 7.1369 196.466 7.72739 196.482 7.84355C196.497 7.95973 196.31 7.81396 196.343 7.98998C196.35 8.03158 196.645 8.64495 196.657 8.68585C196.751 9.00673 196.141 8.12156 196.104 8.07534C195.7 7.57947 196.007 8.24775 196.009 8.30646C196.022 8.57486 195.838 8.51585 195.832 8.71785C195.827 8.84858 196.213 9.43752 196.15 9.45352C195.943 9.50682 195.339 8.72951 195.652 9.54426C195.718 9.71833 196.178 10.3365 195.719 9.91489C195.69 9.88839 195.293 9.4877 195.432 9.81513C195.449 9.85642 195.573 10.0436 195.574 10.0652C195.582 10.2064 195.443 10.0834 195.425 10.1979C195.406 10.3124 195.395 10.4714 195.278 10.4566C195.207 10.4483 194.923 10.1341 194.846 10.0618C194.626 9.8528 194.819 10.3023 194.59 10.0251C194.36 9.74612 194.143 9.23922 193.921 9.10545C194.227 9.6007 194.538 10.1121 194.843 10.6119C194.607 10.7366 194.285 10.713 194.071 10.8715C194.044 10.8915 194.234 11.143 194.21 11.1716C194.105 11.2921 193.879 11.1664 193.791 11.3205C193.722 11.4419 193.775 11.7942 193.705 11.93C193.309 11.3886 193.261 11.6762 193.113 11.6888C193.062 11.6936 192.977 11.5367 192.921 11.5018C192.708 11.3742 193.045 11.861 193.06 11.9588C193.12 12.378 192.467 11.2151 192.332 11.3267C192.324 11.3326 192.568 12.0092 192.575 12.0556C192.627 12.356 192.443 11.8459 192.364 11.829C192.321 11.8198 192.277 11.8034 192.237 11.7915C192.144 11.7622 192.068 11.7575 192.055 11.93C192.05 12.0029 192.18 12.4357 191.953 12.1682C191.924 12.1332 191.818 11.9233 191.805 11.9148C191.571 11.779 191.915 12.4323 191.96 12.6912C192.006 12.9499 191.655 12.5587 191.566 12.4395C191.331 12.1334 191.534 12.2726 191.521 12.2377C191.352 11.8253 191.307 11.9349 191.229 11.9333C190.885 11.2967 190.82 11.3795 191.149 11.9345C191.186 11.9951 191.202 11.9104 191.229 11.9333C191.506 12.5899 191.449 12.7225 191.042 12.1863C190.85 11.9354 190.729 11.5895 190.642 11.7838C190.602 11.8719 190.857 12.3012 190.861 12.4523C190.868 12.7974 190.479 12.4743 190.373 12.6105C190.334 12.6603 190.507 12.878 190.485 12.9205C190.425 13.0338 190.254 12.8913 190.207 13.0322C190.203 13.0452 190.353 13.2897 190.325 13.3076C190.122 13.4476 189.849 13.3796 189.618 13.4889C189.506 13.5421 189.38 13.7804 189.25 13.8089C189.029 13.8585 188.603 13.6048 188.477 13.7782C188.394 13.8905 188.544 14.135 188.581 14.3332C188.655 14.7168 188.197 14.1878 188.129 14.1041C188.127 14.1014 188.194 13.9942 188.079 13.887C187.916 13.6263 188.13 14.1024 188.129 14.1041C188.086 14.0499 187.869 14.0827 187.854 14.1502C187.847 14.187 187.975 14.4254 187.969 14.44C187.819 14.7808 187.592 14.9652 187.279 14.9737C187.272 14.971 187.149 14.6942 187.135 14.6911C186.926 14.6412 186.991 15.0198 186.96 15.2776C186.928 15.5356 186.8 15.5143 186.506 15.0782C186.441 15.181 186.207 15.0367 186.073 14.9455C185.938 14.8549 186.176 15.394 186.174 15.4077C186.119 15.8448 185.855 15.5953 185.613 15.6496C185.495 15.6754 185.327 15.8469 185.239 15.9581C185.171 16.0468 185.059 15.946 185.014 16.0638C185.008 16.0796 185.128 16.313 185.129 16.3237C185.168 16.6512 184.945 16.0478 184.879 15.9523C184.636 15.605 184.502 15.4225 184.465 15.6549C184.455 15.7085 184.761 16.5843 184.733 16.6561C184.697 16.7478 184.584 16.4354 184.55 16.5391C184.547 16.5477 184.633 16.7331 184.587 16.7439C184.374 16.7976 184.118 16.7831 183.923 16.8938C183.896 16.9081 184.064 17.1874 184.028 17.213C183.859 17.3311 183.645 17.4139 183.403 17.3562C183.343 17.3411 183.278 17.1216 183.241 17.0644C183.015 16.719 183.172 17.2973 183.163 17.3139C182.944 17.7231 182.47 17.3472 182.235 17.7298C182.223 17.7516 182.335 18.3956 182.052 17.9257C182.032 17.8947 181.746 17.4123 181.844 17.7852C181.85 17.8085 182.004 18.0538 181.924 18.057C181.845 18.0603 181.811 18.2841 181.59 18.037C181.52 17.9593 181.226 17.4815 181.316 17.9257C181.323 17.9565 181.586 18.934 181.261 18.3222C181.207 18.2215 180.923 17.5477 180.967 17.9377C180.976 18.0132 181.078 18.1466 181.065 18.2633C181.044 18.4434 180.859 18.3104 180.888 18.6528C180.894 18.7133 181.016 19.2011 180.806 18.8817C180.773 18.8316 180.694 18.5999 180.651 18.5886C180.585 18.5708 180.53 18.5821 180.479 18.6023C180.374 18.6434 180.284 18.7227 180.136 18.6628C180.058 18.6317 179.929 18.2574 179.831 18.1847C179.733 18.112 179.578 18.0677 179.591 18.2585C179.604 18.4495 179.916 18.9995 179.848 19.0837C179.548 19.4504 179.021 19.2747 178.616 19.3882C178.556 19.405 178.691 19.592 178.609 19.6317C178.304 19.7796 177.851 20.2004 177.397 19.8729C177.032 19.6109 177.19 19.2278 176.965 19.1536C176.857 19.1186 177.054 19.8288 177.044 19.858C176.948 20.152 176.692 19.9081 176.561 20.0708C176.534 20.1045 176.683 20.3634 176.659 20.389C176.578 20.4788 176.421 20.4012 176.333 20.4641C176.294 20.4929 176.39 20.6983 176.343 20.699C176.232 20.7028 176.11 20.6509 175.935 20.4938C175.919 20.4795 175.868 20.1959 175.793 20.2157C175.673 20.2484 175.451 20.1144 175.402 20.3689C175.388 20.4452 175.585 20.9234 175.363 20.6287C175.317 20.5672 175.101 19.9844 175.21 20.5204C175.228 20.6096 175.341 21.3462 175.081 20.949C175.013 20.8444 174.764 20.3977 174.747 20.491C174.746 20.5054 174.878 20.7514 174.849 20.7926C174.746 20.9338 174.592 20.9654 174.484 21.1044C174.455 21.142 174.622 21.3843 174.575 21.4319C174.448 21.5632 174.228 21.5753 174.043 21.5544C173.974 21.5463 173.922 21.3103 173.908 21.288C173.681 20.9253 173.86 21.4671 173.851 21.5067C173.792 21.746 173.588 21.5413 173.491 21.6576C173.464 21.6891 173.592 21.9299 173.594 21.9551C173.614 22.2027 173.481 21.7306 173.415 21.6993C173.232 21.6103 173.101 21.6881 172.987 21.7724C172.946 21.8036 173.118 22.0731 173.079 22.0977C172.854 22.2491 172.583 22.3278 172.277 22.2657C172.219 22.2536 172.156 22.0178 172.126 21.9705C171.913 21.639 172.018 22.1668 172.015 22.2223C172.002 22.4759 171.882 22.2936 171.809 22.3669C171.454 22.7275 170.866 22.8142 170.426 22.8992C169.853 23.0111 169.353 22.9654 168.871 23.2262C168.84 23.2425 168.993 23.5279 168.968 23.5457C168.639 23.7635 168.24 23.7894 167.916 24.0212C167.889 24.0396 168.046 24.3056 168.007 24.3448C167.928 24.4271 167.799 24.4614 167.664 24.4107C167.598 24.3865 167.564 24.1176 167.5 24.0982C167.351 24.0525 167.223 24.0809 167.127 24.1728C167.086 24.2125 167.277 24.4723 167.214 24.5014C166.792 24.7057 166.387 24.9277 165.797 24.7293C165.757 24.7156 165.493 24.1374 165.474 24.2761C165.536 24.4415 165.613 24.6336 165.682 24.8091C165.089 25.158 164.382 25.2057 163.737 25.4289C163.709 25.4384 163.881 25.7319 163.829 25.7519C163.528 25.8678 163.273 26.071 162.842 25.8839C162.8 25.8658 162.594 25.3104 162.538 25.4294C162.529 25.4509 162.424 25.5783 162.437 25.7115C162.439 25.7314 162.567 25.9778 162.527 26.0028C162.29 26.1431 162.003 26.191 161.688 26.1356C161.637 26.1261 161.57 25.8358 161.533 25.8267C161.27 25.7644 161.13 26.0616 160.834 25.8927C160.636 25.7786 160.495 25.2872 160.238 24.8508C160.202 24.7892 160.117 24.8115 160.004 24.543C159.719 23.8678 159.459 23.108 159.152 22.3902C159.086 22.2355 159.044 22.4473 158.957 22.0444C158.951 22.0174 158.98 21.8605 158.948 21.7248C158.926 21.6309 158.791 21.3659 158.773 21.2416C158.755 21.1175 158.878 21.3356 158.87 21.1842C158.862 21.0312 158.716 20.7267 158.792 20.6529ZM185.463 14.542C185.274 14.3179 185.7 15.263 185.672 15.0026C185.67 14.9889 185.473 14.5529 185.463 14.542ZM193.879 10.0435C193.553 9.70683 193.84 10.3191 194.086 10.5827C194.333 10.8454 193.979 10.1448 193.879 10.0435ZM194.617 9.18465C194.32 8.94747 195.101 10.193 195.05 9.87165C195.048 9.85334 194.634 9.19833 194.617 9.18465ZM160.508 24.5885C160.502 24.5761 160.439 24.5872 160.442 24.6004C160.534 24.9183 160.661 24.896 160.508 24.5885ZM195.297 8.2989C195.156 8.15408 195.194 8.40485 195.37 8.58444C195.512 8.72875 195.473 8.47864 195.297 8.2989ZM181.297 15.214C181.29 15.2004 181.243 15.2058 181.279 15.2853C181.395 15.5413 181.421 15.4434 181.297 15.214ZM196.765 7.30177C196.516 7.39844 195.714 6.47284 196.03 6.42903C196.088 6.421 196.149 6.81459 196.264 6.86956C196.476 6.96892 196.124 6.28868 196.453 6.56169C196.512 6.6122 196.78 7.29895 196.765 7.30344C196.765 7.30288 196.765 7.30232 196.765 7.30177ZM184.899 13.4315C184.892 13.4197 184.83 13.4341 184.834 13.447C184.942 13.7597 185.067 13.7309 184.899 13.4315ZM178.628 15.6789C178.613 15.6537 178.47 15.6854 178.476 15.712C178.62 16.2361 178.911 16.1729 178.628 15.6789ZM188.355 10.9338C188.269 10.6069 188.323 10.5362 188.557 10.8842C188.487 10.8943 188.425 10.9216 188.355 10.9338Z" fill="black"/>
</svg>
