<svg width="182" height="97" viewBox="0 0 182 97" fill="none" xmlns="http://www.w3.org/2000/svg">
<mask id="path-1-outside-1_211_9849" maskUnits="userSpaceOnUse" x="0" y="0" width="182" height="97" fill="black">
<rect fill="white" width="182" height="97"/>
<path d="M28.6987 1.92357C29.1403 1.18457 29.876 0.889145 30.7589 1.03698C31.6419 1.33271 32.3773 2.36724 32.0831 3.40218L31.2006 6.06387C31.0534 6.95104 30.6121 7.54287 30.9065 8.43004C31.7894 9.02116 32.6724 8.72557 33.7025 8.72557C42.0919 7.5427 50.4813 6.35998 59.0178 5.47281C65.3466 4.73352 71.8227 4.4372 78.1515 4.14148C78.8874 3.99363 79.4764 3.99365 80.0651 4.14148C81.0954 4.14148 82.126 4.14176 82.4204 5.32457C82.7148 6.21168 81.8315 7.099 80.2127 7.24696C78.1522 7.39482 75.9441 7.54248 73.8836 7.54249C61.5203 8.13393 49.304 9.61256 37.0879 11.239L30.7589 12.1266C29.2871 12.2744 28.2564 13.1614 27.6677 14.64C25.46 19.5194 23.3997 24.3993 21.9279 29.5744C19.573 37.5588 17.3648 45.691 15.1571 53.8233C15.01 54.5625 14.863 55.3023 14.863 56.1894C14.8631 56.6329 15.1579 57.076 15.7464 57.076C16.188 57.076 16.7768 57.0766 17.2183 56.9287C22.2224 56.0416 27.3741 55.3021 32.3783 54.267C34.5859 53.8235 36.7931 53.6749 38.7064 52.1964C39.2951 51.6049 40.1788 51.6053 40.7675 52.3446C41.5033 53.0839 41.5028 54.1192 40.9141 55.0063C39.8839 56.3368 38.4125 56.9285 36.7938 57.2243C31.7896 58.1114 26.7851 59.1461 21.6337 60.0332C19.5733 60.4768 17.5127 60.7724 15.4523 61.0681C13.8332 61.3638 12.9496 62.2515 12.6552 63.878C12.2137 65.9479 11.6249 68.0177 11.1834 69.9398C9.56437 77.0371 7.94575 84.135 6.17955 91.2323C6.03235 92.4152 5.59099 93.746 5.14947 94.9289C4.8551 95.8159 4.11889 96.1115 3.2359 95.9637C2.20562 95.8159 1.61689 94.9287 1.76407 93.7458C1.91125 93.0065 2.20524 92.2668 2.35242 91.3796L7.65138 67.8701C7.94574 66.9829 8.09255 66.2432 8.23973 65.5039C8.68116 63.2863 8.23986 62.8432 6.17955 62.8432C5.00209 62.991 3.67706 62.9905 2.35242 62.9905C1.61663 62.9903 1.17533 62.3988 1.02816 61.8074C0.881137 60.9203 1.32243 60.0334 2.05824 59.7377C3.38277 59.2942 4.85446 59.1462 6.32616 58.9984C9.12261 58.7027 10.4475 57.3719 11.1834 54.5626C12.6552 48.0567 14.4214 41.4027 16.3348 34.8968C17.9538 28.8345 20.0147 22.92 22.3697 17.1535C22.8112 16.1185 23.547 15.0835 23.1056 13.9007C21.7809 13.3093 20.6031 13.7529 19.2784 13.9007C14.863 14.9357 10.3004 16.119 5.73781 17.0062C4.70756 17.3019 3.52984 17.449 2.35242 17.449C2.20518 17.4487 1.9112 17.1535 1.76407 16.8579C1.76407 16.5622 1.7635 16.2661 1.91068 15.9704C2.35223 15.2312 3.08875 14.9361 3.97181 14.7883C9.41745 13.4575 14.8629 11.9781 20.3085 10.7952C26.3429 9.61237 25.3129 10.3519 27.6677 4.73351C27.962 3.69847 28.2572 2.81073 28.6987 1.92357Z"/>
<path fill-rule="evenodd" clip-rule="evenodd" d="M89.3434 37.6155C89.7849 37.3198 90.227 37.1725 90.6686 37.4683C90.9629 37.7639 91.4039 38.2074 91.5511 38.5031C91.8455 40.1296 91 41 90.3744 42.6434C88.6796 47.0956 88.4982 48.6485 86.5848 54.7108C84.8187 60.1817 83.4944 65.6529 82.3169 71.1238C82.1699 71.8628 82.3164 72.454 82.1694 73.0452C83.494 73.6367 83.6414 72.6018 84.0829 72.0104C86.4378 67.8703 88.7924 63.5822 91.2945 59.4422C93.2079 56.3371 95.416 53.3802 98.0653 50.7187C98.9484 49.8316 99.9787 48.9446 101.009 48.2053C102.775 47.1703 104.541 47.9092 105.277 49.8312C106.013 51.4576 106.013 53.2321 105.866 55.0063C105.866 57.52 105.572 59.8863 105.424 62.2521C105.424 63.4347 105.571 64.6173 105.571 65.6522C105.571 66.2435 106.601 66.687 107.043 66.3915L109.84 63.7307C111.459 62.1043 113.078 60.477 114.697 58.9984C115.58 58.2592 116.463 57.6678 117.493 57.2243C119.407 56.4849 121.026 57.0768 121.909 58.8511C122.497 59.7383 122.645 60.6257 123.086 61.5128C123.528 62.3999 123.97 63.287 124.558 64.0263C125.588 65.2089 126.766 65.6523 128.384 65.0611C130.298 64.4697 131.917 63.435 133.389 62.2521C136.774 59.4428 140.012 56.6332 143.25 53.676C143.274 53.664 143.295 53.6484 143.317 53.6346C144.645 51.4601 146.224 49.4434 148.113 47.6133C150.321 45.5433 152.675 43.9166 155.619 43.473C159.299 42.8815 161.506 45.0998 161.212 48.7964C160.77 51.7534 159.446 54.415 157.533 56.4849C153.706 60.625 149.732 64.7646 143.698 65.5039C142.962 65.6518 142.667 66.2438 142.52 66.8352C142.079 68.6095 142.373 70.384 142.962 72.0104C143.551 74.6717 145.317 75.8548 147.966 75.4114C150.173 74.9678 152.234 74.0802 154.295 73.0452C158.121 70.9752 161.654 68.4611 164.892 65.5039C168.424 62.251 171.81 58.8503 175.342 55.5974C176.225 54.7103 177.108 53.8228 178.138 52.9357C178.874 52.3444 179.757 52.3446 180.346 52.9357C180.935 53.5271 181.229 54.2666 180.788 55.1536C180.493 55.745 180.051 56.1887 179.61 56.6322C174.9 61.5117 170.19 66.2438 164.892 70.5318C161.654 73.1931 158.122 75.5585 154.442 77.3328C152.087 78.3678 149.585 79.2552 146.936 79.2552C143.256 79.2552 140.459 77.3332 139.429 73.7845C138.84 72.1582 138.399 70.384 138.546 68.7576C138.403 66.312 138.956 64.146 139.528 62.1241L135.744 65.3566C134.125 66.6873 132.359 67.7223 130.446 68.6094C126.472 70.088 123.234 69.0534 120.879 65.5049C119.848 64.1741 119.848 62.3996 118.229 61.3646C115.58 62.8432 113.666 65.3572 111.458 67.4273C109.987 69.0536 108.515 70.8278 106.307 71.7149C104.982 72.4539 103.363 71.8624 102.627 70.5318C102.186 69.4969 101.892 68.4618 101.745 67.279C101.598 66.244 101.597 65.0609 101.597 63.878C101.744 61.6602 101.891 59.4421 101.891 57.2243C101.892 56.0413 102.774 54.1195 101.156 53.676C99.9785 53.3808 99.2428 55.154 98.507 56.0412C96.005 58.9983 93.9438 62.3993 92.0304 65.6522C89.6755 69.9401 87.3204 74.2285 84.9655 78.3686C84.0824 80.1429 83.1994 81.7693 81.7276 83.1C80.9917 83.8393 80.1084 84.135 79.0781 83.8393C78.0482 83.5434 77.4597 82.6562 77.4597 81.6214C77.4597 79.8471 77.4591 78.0726 77.6063 76.4462C78.4894 70.2361 79.8145 64.3217 81.4334 58.4073C81.6326 57.7072 81.8268 57.0222 82.018 56.3502C77.4597 58.0442 72.979 59.8415 67.9973 60.3297C65.3481 60.6254 65.348 60.7733 65.7895 63.2869C66.3781 66.244 65.9369 69.0535 64.7594 71.7149C63.7292 73.9327 62.4045 75.5593 60.344 76.89C55.6341 79.6993 49.8938 77.333 48.8635 71.8621C48.5692 70.6794 48.4222 69.3489 48.5693 68.0183C49.1581 61.956 51.5128 56.4846 55.4867 51.9009C56.6642 50.4223 57.9891 49.2395 59.608 48.6481C60.1968 48.3524 60.9329 48.2043 61.5216 48.2043C62.2573 48.3522 62.9927 48.7961 63.14 49.6829C63.2872 50.57 63.1403 51.4573 62.2575 51.6053C58.8723 52.1968 57.5475 54.7106 55.9285 57.2243C54.6038 59.59 53.5736 62.1041 52.9848 64.7656C52.5434 66.0962 52.3955 67.5747 52.3955 69.0532C52.3955 71.8623 53.4261 73.6363 55.3392 74.0801C57.1052 74.5236 59.313 73.489 60.4906 71.4193C62.4039 68.3143 62.9927 65.0612 60.9323 61.8083C60.3436 60.9212 59.902 59.8861 59.4605 58.8511C59.1661 57.8162 59.9022 56.7812 60.9323 56.6332H65.4954C67.8503 56.9289 70.7944 56.189 73.738 55.3019C76.387 54.267 79.183 53.3795 81.8321 52.3446L83.2847 51.9798C84.8818 46.6317 85.5 45 87.4308 40.4255C88.0195 39.3905 88.3132 38.207 89.3434 37.6155ZM157.238 48.6481C157.091 47.6133 156.503 47.3174 155.914 47.465C155.031 47.6129 154 48.0563 153.265 48.4999C150.886 50.0655 148.964 52.045 147.423 54.3094C147.397 54.7641 147.142 55.2371 146.636 55.7456C146.519 55.892 146.396 56.0375 146.269 56.1827C145.561 57.452 144.953 58.7912 144.434 60.1815C144.434 60.4771 144.581 60.9206 144.728 60.9208C145.022 61.0686 145.464 61.2159 145.611 61.0681C149.732 58.8502 153.559 56.1891 155.914 52.0491C156.65 50.8662 157.238 49.831 157.238 48.6481Z"/>
<path d="M163.469 20.3899C164.195 20.2336 164.895 20.2595 165.569 20.4678C166.243 20.6762 166.71 20.9628 166.969 21.3275C167.28 21.6401 167.306 22.0052 167.047 22.422C166.839 22.8386 166.217 23.203 165.18 23.5155C164.661 23.6197 163.779 23.9331 162.534 24.4541C161.341 24.9754 157.454 26.8881 156.106 27.5654C154.757 28.1906 153.512 28.8422 152.372 29.5195C151.231 30.1968 150.505 30.744 150.193 31.1608C149.882 31.5254 149.363 31.7862 148.637 31.9425C147.963 32.0987 147.289 32.1505 146.615 32.0984C145.993 31.9942 145.5 31.7595 145.137 31.3947C144.826 31.0301 144.852 30.5094 145.215 29.8324C145.733 29.155 146.667 28.399 148.015 27.5654C149.416 26.6796 150.92 25.846 152.528 25.0644C154.187 24.2309 155.769 23.5015 157.273 22.8764C158.829 22.2511 162.639 20.5462 163.469 20.3899Z"/>
</mask>
<path d="M28.6987 1.92357C29.1403 1.18457 29.876 0.889145 30.7589 1.03698C31.6419 1.33271 32.3773 2.36724 32.0831 3.40218L31.2006 6.06387C31.0534 6.95104 30.6121 7.54287 30.9065 8.43004C31.7894 9.02116 32.6724 8.72557 33.7025 8.72557C42.0919 7.5427 50.4813 6.35998 59.0178 5.47281C65.3466 4.73352 71.8227 4.4372 78.1515 4.14148C78.8874 3.99363 79.4764 3.99365 80.0651 4.14148C81.0954 4.14148 82.126 4.14176 82.4204 5.32457C82.7148 6.21168 81.8315 7.099 80.2127 7.24696C78.1522 7.39482 75.9441 7.54248 73.8836 7.54249C61.5203 8.13393 49.304 9.61256 37.0879 11.239L30.7589 12.1266C29.2871 12.2744 28.2564 13.1614 27.6677 14.64C25.46 19.5194 23.3997 24.3993 21.9279 29.5744C19.573 37.5588 17.3648 45.691 15.1571 53.8233C15.01 54.5625 14.863 55.3023 14.863 56.1894C14.8631 56.6329 15.1579 57.076 15.7464 57.076C16.188 57.076 16.7768 57.0766 17.2183 56.9287C22.2224 56.0416 27.3741 55.3021 32.3783 54.267C34.5859 53.8235 36.7931 53.6749 38.7064 52.1964C39.2951 51.6049 40.1788 51.6053 40.7675 52.3446C41.5033 53.0839 41.5028 54.1192 40.9141 55.0063C39.8839 56.3368 38.4125 56.9285 36.7938 57.2243C31.7896 58.1114 26.7851 59.1461 21.6337 60.0332C19.5733 60.4768 17.5127 60.7724 15.4523 61.0681C13.8332 61.3638 12.9496 62.2515 12.6552 63.878C12.2137 65.9479 11.6249 68.0177 11.1834 69.9398C9.56437 77.0371 7.94575 84.135 6.17955 91.2323C6.03235 92.4152 5.59099 93.746 5.14947 94.9289C4.8551 95.8159 4.11889 96.1115 3.2359 95.9637C2.20562 95.8159 1.61689 94.9287 1.76407 93.7458C1.91125 93.0065 2.20524 92.2668 2.35242 91.3796L7.65138 67.8701C7.94574 66.9829 8.09255 66.2432 8.23973 65.5039C8.68116 63.2863 8.23986 62.8432 6.17955 62.8432C5.00209 62.991 3.67706 62.9905 2.35242 62.9905C1.61663 62.9903 1.17533 62.3988 1.02816 61.8074C0.881137 60.9203 1.32243 60.0334 2.05824 59.7377C3.38277 59.2942 4.85446 59.1462 6.32616 58.9984C9.12261 58.7027 10.4475 57.3719 11.1834 54.5626C12.6552 48.0567 14.4214 41.4027 16.3348 34.8968C17.9538 28.8345 20.0147 22.92 22.3697 17.1535C22.8112 16.1185 23.547 15.0835 23.1056 13.9007C21.7809 13.3093 20.6031 13.7529 19.2784 13.9007C14.863 14.9357 10.3004 16.119 5.73781 17.0062C4.70756 17.3019 3.52984 17.449 2.35242 17.449C2.20518 17.4487 1.9112 17.1535 1.76407 16.8579C1.76407 16.5622 1.7635 16.2661 1.91068 15.9704C2.35223 15.2312 3.08875 14.9361 3.97181 14.7883C9.41745 13.4575 14.8629 11.9781 20.3085 10.7952C26.3429 9.61237 25.3129 10.3519 27.6677 4.73351C27.962 3.69847 28.2572 2.81073 28.6987 1.92357Z" fill="black"/>
<path fill-rule="evenodd" clip-rule="evenodd" d="M89.3434 37.6155C89.7849 37.3198 90.227 37.1725 90.6686 37.4683C90.9629 37.7639 91.4039 38.2074 91.5511 38.5031C91.8455 40.1296 91 41 90.3744 42.6434C88.6796 47.0956 88.4982 48.6485 86.5848 54.7108C84.8187 60.1817 83.4944 65.6529 82.3169 71.1238C82.1699 71.8628 82.3164 72.454 82.1694 73.0452C83.494 73.6367 83.6414 72.6018 84.0829 72.0104C86.4378 67.8703 88.7924 63.5822 91.2945 59.4422C93.2079 56.3371 95.416 53.3802 98.0653 50.7187C98.9484 49.8316 99.9787 48.9446 101.009 48.2053C102.775 47.1703 104.541 47.9092 105.277 49.8312C106.013 51.4576 106.013 53.2321 105.866 55.0063C105.866 57.52 105.572 59.8863 105.424 62.2521C105.424 63.4347 105.571 64.6173 105.571 65.6522C105.571 66.2435 106.601 66.687 107.043 66.3915L109.84 63.7307C111.459 62.1043 113.078 60.477 114.697 58.9984C115.58 58.2592 116.463 57.6678 117.493 57.2243C119.407 56.4849 121.026 57.0768 121.909 58.8511C122.497 59.7383 122.645 60.6257 123.086 61.5128C123.528 62.3999 123.97 63.287 124.558 64.0263C125.588 65.2089 126.766 65.6523 128.384 65.0611C130.298 64.4697 131.917 63.435 133.389 62.2521C136.774 59.4428 140.012 56.6332 143.25 53.676C143.274 53.664 143.295 53.6484 143.317 53.6346C144.645 51.4601 146.224 49.4434 148.113 47.6133C150.321 45.5433 152.675 43.9166 155.619 43.473C159.299 42.8815 161.506 45.0998 161.212 48.7964C160.77 51.7534 159.446 54.415 157.533 56.4849C153.706 60.625 149.732 64.7646 143.698 65.5039C142.962 65.6518 142.667 66.2438 142.52 66.8352C142.079 68.6095 142.373 70.384 142.962 72.0104C143.551 74.6717 145.317 75.8548 147.966 75.4114C150.173 74.9678 152.234 74.0802 154.295 73.0452C158.121 70.9752 161.654 68.4611 164.892 65.5039C168.424 62.251 171.81 58.8503 175.342 55.5974C176.225 54.7103 177.108 53.8228 178.138 52.9357C178.874 52.3444 179.757 52.3446 180.346 52.9357C180.935 53.5271 181.229 54.2666 180.788 55.1536C180.493 55.745 180.051 56.1887 179.61 56.6322C174.9 61.5117 170.19 66.2438 164.892 70.5318C161.654 73.1931 158.122 75.5585 154.442 77.3328C152.087 78.3678 149.585 79.2552 146.936 79.2552C143.256 79.2552 140.459 77.3332 139.429 73.7845C138.84 72.1582 138.399 70.384 138.546 68.7576C138.403 66.312 138.956 64.146 139.528 62.1241L135.744 65.3566C134.125 66.6873 132.359 67.7223 130.446 68.6094C126.472 70.088 123.234 69.0534 120.879 65.5049C119.848 64.1741 119.848 62.3996 118.229 61.3646C115.58 62.8432 113.666 65.3572 111.458 67.4273C109.987 69.0536 108.515 70.8278 106.307 71.7149C104.982 72.4539 103.363 71.8624 102.627 70.5318C102.186 69.4969 101.892 68.4618 101.745 67.279C101.598 66.244 101.597 65.0609 101.597 63.878C101.744 61.6602 101.891 59.4421 101.891 57.2243C101.892 56.0413 102.774 54.1195 101.156 53.676C99.9785 53.3808 99.2428 55.154 98.507 56.0412C96.005 58.9983 93.9438 62.3993 92.0304 65.6522C89.6755 69.9401 87.3204 74.2285 84.9655 78.3686C84.0824 80.1429 83.1994 81.7693 81.7276 83.1C80.9917 83.8393 80.1084 84.135 79.0781 83.8393C78.0482 83.5434 77.4597 82.6562 77.4597 81.6214C77.4597 79.8471 77.4591 78.0726 77.6063 76.4462C78.4894 70.2361 79.8145 64.3217 81.4334 58.4073C81.6326 57.7072 81.8268 57.0222 82.018 56.3502C77.4597 58.0442 72.979 59.8415 67.9973 60.3297C65.3481 60.6254 65.348 60.7733 65.7895 63.2869C66.3781 66.244 65.9369 69.0535 64.7594 71.7149C63.7292 73.9327 62.4045 75.5593 60.344 76.89C55.6341 79.6993 49.8938 77.333 48.8635 71.8621C48.5692 70.6794 48.4222 69.3489 48.5693 68.0183C49.1581 61.956 51.5128 56.4846 55.4867 51.9009C56.6642 50.4223 57.9891 49.2395 59.608 48.6481C60.1968 48.3524 60.9329 48.2043 61.5216 48.2043C62.2573 48.3522 62.9927 48.7961 63.14 49.6829C63.2872 50.57 63.1403 51.4573 62.2575 51.6053C58.8723 52.1968 57.5475 54.7106 55.9285 57.2243C54.6038 59.59 53.5736 62.1041 52.9848 64.7656C52.5434 66.0962 52.3955 67.5747 52.3955 69.0532C52.3955 71.8623 53.4261 73.6363 55.3392 74.0801C57.1052 74.5236 59.313 73.489 60.4906 71.4193C62.4039 68.3143 62.9927 65.0612 60.9323 61.8083C60.3436 60.9212 59.902 59.8861 59.4605 58.8511C59.1661 57.8162 59.9022 56.7812 60.9323 56.6332H65.4954C67.8503 56.9289 70.7944 56.189 73.738 55.3019C76.387 54.267 79.183 53.3795 81.8321 52.3446L83.2847 51.9798C84.8818 46.6317 85.5 45 87.4308 40.4255C88.0195 39.3905 88.3132 38.207 89.3434 37.6155ZM157.238 48.6481C157.091 47.6133 156.503 47.3174 155.914 47.465C155.031 47.6129 154 48.0563 153.265 48.4999C150.886 50.0655 148.964 52.045 147.423 54.3094C147.397 54.7641 147.142 55.2371 146.636 55.7456C146.519 55.892 146.396 56.0375 146.269 56.1827C145.561 57.452 144.953 58.7912 144.434 60.1815C144.434 60.4771 144.581 60.9206 144.728 60.9208C145.022 61.0686 145.464 61.2159 145.611 61.0681C149.732 58.8502 153.559 56.1891 155.914 52.0491C156.65 50.8662 157.238 49.831 157.238 48.6481Z" fill="black"/>
<path d="M163.469 20.3899C164.195 20.2336 164.895 20.2595 165.569 20.4678C166.243 20.6762 166.71 20.9628 166.969 21.3275C167.28 21.6401 167.306 22.0052 167.047 22.422C166.839 22.8386 166.217 23.203 165.18 23.5155C164.661 23.6197 163.779 23.9331 162.534 24.4541C161.341 24.9754 157.454 26.8881 156.106 27.5654C154.757 28.1906 153.512 28.8422 152.372 29.5195C151.231 30.1968 150.505 30.744 150.193 31.1608C149.882 31.5254 149.363 31.7862 148.637 31.9425C147.963 32.0987 147.289 32.1505 146.615 32.0984C145.993 31.9942 145.5 31.7595 145.137 31.3947C144.826 31.0301 144.852 30.5094 145.215 29.8324C145.733 29.155 146.667 28.399 148.015 27.5654C149.416 26.6796 150.92 25.846 152.528 25.0644C154.187 24.2309 155.769 23.5015 157.273 22.8764C158.829 22.2511 162.639 20.5462 163.469 20.3899Z" fill="black"/>
<path d="M28.6987 1.92357C29.1403 1.18457 29.876 0.889145 30.7589 1.03698C31.6419 1.33271 32.3773 2.36724 32.0831 3.40218L31.2006 6.06387C31.0534 6.95104 30.6121 7.54287 30.9065 8.43004C31.7894 9.02116 32.6724 8.72557 33.7025 8.72557C42.0919 7.5427 50.4813 6.35998 59.0178 5.47281C65.3466 4.73352 71.8227 4.4372 78.1515 4.14148C78.8874 3.99363 79.4764 3.99365 80.0651 4.14148C81.0954 4.14148 82.126 4.14176 82.4204 5.32457C82.7148 6.21168 81.8315 7.099 80.2127 7.24696C78.1522 7.39482 75.9441 7.54248 73.8836 7.54249C61.5203 8.13393 49.304 9.61256 37.0879 11.239L30.7589 12.1266C29.2871 12.2744 28.2564 13.1614 27.6677 14.64C25.46 19.5194 23.3997 24.3993 21.9279 29.5744C19.573 37.5588 17.3648 45.691 15.1571 53.8233C15.01 54.5625 14.863 55.3023 14.863 56.1894C14.8631 56.6329 15.1579 57.076 15.7464 57.076C16.188 57.076 16.7768 57.0766 17.2183 56.9287C22.2224 56.0416 27.3741 55.3021 32.3783 54.267C34.5859 53.8235 36.7931 53.6749 38.7064 52.1964C39.2951 51.6049 40.1788 51.6053 40.7675 52.3446C41.5033 53.0839 41.5028 54.1192 40.9141 55.0063C39.8839 56.3368 38.4125 56.9285 36.7938 57.2243C31.7896 58.1114 26.7851 59.1461 21.6337 60.0332C19.5733 60.4768 17.5127 60.7724 15.4523 61.0681C13.8332 61.3638 12.9496 62.2515 12.6552 63.878C12.2137 65.9479 11.6249 68.0177 11.1834 69.9398C9.56437 77.0371 7.94575 84.135 6.17955 91.2323C6.03235 92.4152 5.59099 93.746 5.14947 94.9289C4.8551 95.8159 4.11889 96.1115 3.2359 95.9637C2.20562 95.8159 1.61689 94.9287 1.76407 93.7458C1.91125 93.0065 2.20524 92.2668 2.35242 91.3796L7.65138 67.8701C7.94574 66.9829 8.09255 66.2432 8.23973 65.5039C8.68116 63.2863 8.23986 62.8432 6.17955 62.8432C5.00209 62.991 3.67706 62.9905 2.35242 62.9905C1.61663 62.9903 1.17533 62.3988 1.02816 61.8074C0.881137 60.9203 1.32243 60.0334 2.05824 59.7377C3.38277 59.2942 4.85446 59.1462 6.32616 58.9984C9.12261 58.7027 10.4475 57.3719 11.1834 54.5626C12.6552 48.0567 14.4214 41.4027 16.3348 34.8968C17.9538 28.8345 20.0147 22.92 22.3697 17.1535C22.8112 16.1185 23.547 15.0835 23.1056 13.9007C21.7809 13.3093 20.6031 13.7529 19.2784 13.9007C14.863 14.9357 10.3004 16.119 5.73781 17.0062C4.70756 17.3019 3.52984 17.449 2.35242 17.449C2.20518 17.4487 1.9112 17.1535 1.76407 16.8579C1.76407 16.5622 1.7635 16.2661 1.91068 15.9704C2.35223 15.2312 3.08875 14.9361 3.97181 14.7883C9.41745 13.4575 14.8629 11.9781 20.3085 10.7952C26.3429 9.61237 25.3129 10.3519 27.6677 4.73351C27.962 3.69847 28.2572 2.81073 28.6987 1.92357Z" stroke="black" mask="url(#path-1-outside-1_211_9849)"/>
<path fill-rule="evenodd" clip-rule="evenodd" d="M89.3434 37.6155C89.7849 37.3198 90.227 37.1725 90.6686 37.4683C90.9629 37.7639 91.4039 38.2074 91.5511 38.5031C91.8455 40.1296 91 41 90.3744 42.6434C88.6796 47.0956 88.4982 48.6485 86.5848 54.7108C84.8187 60.1817 83.4944 65.6529 82.3169 71.1238C82.1699 71.8628 82.3164 72.454 82.1694 73.0452C83.494 73.6367 83.6414 72.6018 84.0829 72.0104C86.4378 67.8703 88.7924 63.5822 91.2945 59.4422C93.2079 56.3371 95.416 53.3802 98.0653 50.7187C98.9484 49.8316 99.9787 48.9446 101.009 48.2053C102.775 47.1703 104.541 47.9092 105.277 49.8312C106.013 51.4576 106.013 53.2321 105.866 55.0063C105.866 57.52 105.572 59.8863 105.424 62.2521C105.424 63.4347 105.571 64.6173 105.571 65.6522C105.571 66.2435 106.601 66.687 107.043 66.3915L109.84 63.7307C111.459 62.1043 113.078 60.477 114.697 58.9984C115.58 58.2592 116.463 57.6678 117.493 57.2243C119.407 56.4849 121.026 57.0768 121.909 58.8511C122.497 59.7383 122.645 60.6257 123.086 61.5128C123.528 62.3999 123.97 63.287 124.558 64.0263C125.588 65.2089 126.766 65.6523 128.384 65.0611C130.298 64.4697 131.917 63.435 133.389 62.2521C136.774 59.4428 140.012 56.6332 143.25 53.676C143.274 53.664 143.295 53.6484 143.317 53.6346C144.645 51.4601 146.224 49.4434 148.113 47.6133C150.321 45.5433 152.675 43.9166 155.619 43.473C159.299 42.8815 161.506 45.0998 161.212 48.7964C160.77 51.7534 159.446 54.415 157.533 56.4849C153.706 60.625 149.732 64.7646 143.698 65.5039C142.962 65.6518 142.667 66.2438 142.52 66.8352C142.079 68.6095 142.373 70.384 142.962 72.0104C143.551 74.6717 145.317 75.8548 147.966 75.4114C150.173 74.9678 152.234 74.0802 154.295 73.0452C158.121 70.9752 161.654 68.4611 164.892 65.5039C168.424 62.251 171.81 58.8503 175.342 55.5974C176.225 54.7103 177.108 53.8228 178.138 52.9357C178.874 52.3444 179.757 52.3446 180.346 52.9357C180.935 53.5271 181.229 54.2666 180.788 55.1536C180.493 55.745 180.051 56.1887 179.61 56.6322C174.9 61.5117 170.19 66.2438 164.892 70.5318C161.654 73.1931 158.122 75.5585 154.442 77.3328C152.087 78.3678 149.585 79.2552 146.936 79.2552C143.256 79.2552 140.459 77.3332 139.429 73.7845C138.84 72.1582 138.399 70.384 138.546 68.7576C138.403 66.312 138.956 64.146 139.528 62.1241L135.744 65.3566C134.125 66.6873 132.359 67.7223 130.446 68.6094C126.472 70.088 123.234 69.0534 120.879 65.5049C119.848 64.1741 119.848 62.3996 118.229 61.3646C115.58 62.8432 113.666 65.3572 111.458 67.4273C109.987 69.0536 108.515 70.8278 106.307 71.7149C104.982 72.4539 103.363 71.8624 102.627 70.5318C102.186 69.4969 101.892 68.4618 101.745 67.279C101.598 66.244 101.597 65.0609 101.597 63.878C101.744 61.6602 101.891 59.4421 101.891 57.2243C101.892 56.0413 102.774 54.1195 101.156 53.676C99.9785 53.3808 99.2428 55.154 98.507 56.0412C96.005 58.9983 93.9438 62.3993 92.0304 65.6522C89.6755 69.9401 87.3204 74.2285 84.9655 78.3686C84.0824 80.1429 83.1994 81.7693 81.7276 83.1C80.9917 83.8393 80.1084 84.135 79.0781 83.8393C78.0482 83.5434 77.4597 82.6562 77.4597 81.6214C77.4597 79.8471 77.4591 78.0726 77.6063 76.4462C78.4894 70.2361 79.8145 64.3217 81.4334 58.4073C81.6326 57.7072 81.8268 57.0222 82.018 56.3502C77.4597 58.0442 72.979 59.8415 67.9973 60.3297C65.3481 60.6254 65.348 60.7733 65.7895 63.2869C66.3781 66.244 65.9369 69.0535 64.7594 71.7149C63.7292 73.9327 62.4045 75.5593 60.344 76.89C55.6341 79.6993 49.8938 77.333 48.8635 71.8621C48.5692 70.6794 48.4222 69.3489 48.5693 68.0183C49.1581 61.956 51.5128 56.4846 55.4867 51.9009C56.6642 50.4223 57.9891 49.2395 59.608 48.6481C60.1968 48.3524 60.9329 48.2043 61.5216 48.2043C62.2573 48.3522 62.9927 48.7961 63.14 49.6829C63.2872 50.57 63.1403 51.4573 62.2575 51.6053C58.8723 52.1968 57.5475 54.7106 55.9285 57.2243C54.6038 59.59 53.5736 62.1041 52.9848 64.7656C52.5434 66.0962 52.3955 67.5747 52.3955 69.0532C52.3955 71.8623 53.4261 73.6363 55.3392 74.0801C57.1052 74.5236 59.313 73.489 60.4906 71.4193C62.4039 68.3143 62.9927 65.0612 60.9323 61.8083C60.3436 60.9212 59.902 59.8861 59.4605 58.8511C59.1661 57.8162 59.9022 56.7812 60.9323 56.6332H65.4954C67.8503 56.9289 70.7944 56.189 73.738 55.3019C76.387 54.267 79.183 53.3795 81.8321 52.3446L83.2847 51.9798C84.8818 46.6317 85.5 45 87.4308 40.4255C88.0195 39.3905 88.3132 38.207 89.3434 37.6155ZM157.238 48.6481C157.091 47.6133 156.503 47.3174 155.914 47.465C155.031 47.6129 154 48.0563 153.265 48.4999C150.886 50.0655 148.964 52.045 147.423 54.3094C147.397 54.7641 147.142 55.2371 146.636 55.7456C146.519 55.892 146.396 56.0375 146.269 56.1827C145.561 57.452 144.953 58.7912 144.434 60.1815C144.434 60.4771 144.581 60.9206 144.728 60.9208C145.022 61.0686 145.464 61.2159 145.611 61.0681C149.732 58.8502 153.559 56.1891 155.914 52.0491C156.65 50.8662 157.238 49.831 157.238 48.6481Z" stroke="black" mask="url(#path-1-outside-1_211_9849)"/>
<path d="M163.469 20.3899C164.195 20.2336 164.895 20.2595 165.569 20.4678C166.243 20.6762 166.71 20.9628 166.969 21.3275C167.28 21.6401 167.306 22.0052 167.047 22.422C166.839 22.8386 166.217 23.203 165.18 23.5155C164.661 23.6197 163.779 23.9331 162.534 24.4541C161.341 24.9754 157.454 26.8881 156.106 27.5654C154.757 28.1906 153.512 28.8422 152.372 29.5195C151.231 30.1968 150.505 30.744 150.193 31.1608C149.882 31.5254 149.363 31.7862 148.637 31.9425C147.963 32.0987 147.289 32.1505 146.615 32.0984C145.993 31.9942 145.5 31.7595 145.137 31.3947C144.826 31.0301 144.852 30.5094 145.215 29.8324C145.733 29.155 146.667 28.399 148.015 27.5654C149.416 26.6796 150.92 25.846 152.528 25.0644C154.187 24.2309 155.769 23.5015 157.273 22.8764C158.829 22.2511 162.639 20.5462 163.469 20.3899Z" stroke="black" mask="url(#path-1-outside-1_211_9849)"/>
</svg>
