<svg width="200" height="79" viewBox="0 0 200 79" fill="none" xmlns="http://www.w3.org/2000/svg">
<path d="M40.9848 0C49.7917 0.203421 45.5599 0.0311146 53.675 0.400705C57.3238 0.614493 56.7093 5.24064 53.1769 5.01894C45.1706 4.52422 49.2861 4.70448 40.8293 4.47645C38.6046 4.51535 36.3799 4.55468 34.1552 4.59358C30.1806 4.75552 26.0976 5.04251 22.1476 5.55527C22.164 5.78905 22.0549 5.91425 22.0712 6.14796C21.67 7.11627 21.2608 7.96786 20.8597 8.93616C19.1956 13.6366 17.8651 18.0789 16.4425 22.8798C15.7732 25.0422 15.1119 27.3214 14.5757 29.7094C20.8262 28.5648 27.1094 27.8884 33.4172 27.5623C37.1504 27.2999 37.2447 31.9938 33.6202 32.1313C31.987 32.2461 30.3537 32.3614 28.6038 32.4844C23.4789 32.9623 18.2533 33.6817 13.069 34.9864C12.2318 38.1008 11.5109 41.2072 10.7822 44.1964C9.86109 47.7869 9.17338 51.3611 8.36892 54.9433C7.08541 61.7323 6.27275 65.1978 5.548 71.595C5.32077 73.3737 5.20202 75.0273 5.08327 76.6809C4.72907 79.9964 -0.336461 79.6477 0.0177312 76.3321C0.253155 74.6703 0.481006 72.8912 0.708246 71.1124C1.77474 64.574 2.58679 61.1086 3.98688 54.3118C5.42796 48.0993 6.87794 42.0032 8.43569 35.7825C6.04523 35.128 5.69094 31.745 8.79149 30.8217C9.02468 30.8053 9.36641 30.6639 9.59973 30.6473C10.3366 27.775 11.0654 24.7855 11.919 21.9049C13.1247 17.3543 14.4061 12.2104 15.8451 7.64334C15.9372 7.28444 16.0377 7.04236 16.1298 6.68341C15.2047 6.86596 14.3964 7.0407 13.4714 7.22326C9.56214 8.32078 8.16881 3.48239 12.078 2.38486C18.9036 1.08232 25.7704 0.364554 32.6696 0.114487C33.1361 0.0816864 33.6026 0.0486529 34.0691 0.0158521C36.2937 -0.0230526 38.6435 0.0470949 40.9848 0Z" fill="black"/>
<path fill-rule="evenodd" clip-rule="evenodd" d="M160.489 36.0177C163.517 35.8048 167.231 36.5019 169.25 38.9265C171.297 41.368 170.685 44.3495 168.616 46.6104C167.038 48.1281 165.166 49.256 163.245 50.2792C160.652 51.7542 157.8 52.8945 154.941 53.9182C157.123 55.1649 159.953 55.3285 162.414 55.1555C169.647 54.6469 176.45 51.348 182.928 48.4245C186.237 47.1341 193.354 42.6813 196.821 41.9675C200.895 41.5636 201.177 45.8959 196.947 47.1291C194.438 48.1281 187.84 51.6049 185.223 52.7293C175.732 56.9788 160.58 64.8751 150.713 57.1537C149.096 55.7452 148.012 54.0627 147.466 52.1991C143.899 52.9108 140.339 53.7188 136.763 54.3101C133.505 54.6567 130.263 55.2374 127.056 54.6403C121.35 53.5137 119.446 49.7692 118.419 45.1405C118.411 45.0237 118.403 44.9069 118.395 44.79C118.178 45.0403 117.844 45.2989 117.627 45.5492C116.626 46.3249 111.787 50.8959 111.128 51.5298C110.469 52.1642 105.956 56.3592 104.681 56.5663C97.4972 57.7764 99.3702 52.7088 100.183 49.2436C100.425 48.2123 100.631 47.2719 100.561 46.2792C100.011 46.788 99.4604 47.2968 99.1269 47.5553C98.1506 48.6816 97.0494 49.699 96.0731 50.8252C92.8188 54.5798 92.943 54.6887 89.6968 58.5602C88.5034 59.9372 85.1733 64.2842 82.5905 64.2308C79.9624 64.4153 78.7048 61.5459 78.8559 59.44C79.1835 57.419 80.5797 53.9121 81.2736 52.1005C81.3946 51.7981 81.5171 51.4971 81.6382 51.196C81.0692 51.3204 80.4987 51.439 79.9251 51.5448C72.8331 53.0757 64.2939 55.0888 56.6075 54.7143C56.3519 55.1406 56.125 55.6812 55.8695 56.1075C54.8759 57.4433 54.1374 58.836 53.002 60.0864C51.2421 62.2177 48.5178 64.8321 45.879 66.3374C43.3537 67.8143 40.5158 69.0064 37.6236 67.5545C35.6177 66.7059 35.2724 63.8468 35.2735 61.9798C35.5317 57.6866 38.1724 51.8309 40.614 48.0793C41.3764 46.8075 42.4751 45.1667 44.0772 45.0392C44.532 43.4758 45.7806 42.1971 47.5113 41.4021C50.3122 40.3666 54.1773 40.5819 56.3035 42.3462C58.5996 44.3095 59.0516 47.096 58.5393 49.8821C65.2331 50.1422 72.7225 48.2704 79.0202 46.938C80.6006 46.543 82.2788 46.1238 83.8731 45.7253C84.6284 43.9071 85.3964 42.0855 86.188 40.2378C86.8143 39.1364 87.7145 38.6032 88.6558 38.6544C90.5224 38.5231 92.3957 40.1544 91.2597 42.3497C89.4053 46.0058 87.6833 49.8875 86.3119 53.7447C86.1114 54.2288 85.9113 54.713 85.7189 55.314C89.6239 50.8089 87.6464 52.7102 91.8852 47.9463C92.9699 46.6949 93.9462 45.5687 95.0391 44.4342C96.5824 43.033 100.496 38.6448 103.535 40.1938C107.432 42.2702 106.202 46.4696 105.598 49.5677C106.149 49.0589 106.816 48.5423 107.366 48.0335C109.585 46.2322 111.546 44.0962 113.757 42.1779C116.409 39.8761 119.295 37.5577 122.69 40.8446C125.221 43.0486 123.106 47.9053 126.937 49.595C129.236 50.6085 133.752 49.8214 136.077 49.5404C139.669 48.9352 143.128 48.1043 146.587 47.2735C146.81 47.2234 147.025 47.1931 147.23 47.1802C147.718 44.4335 149.167 41.9322 151.277 40.0731C153.704 37.9047 156.997 36.3807 160.489 36.0177ZM45.3493 50.6412C44.3147 52.0912 38.6174 61.9805 41.0015 64.1736C41.2527 64.4039 41.7661 63.3613 42.6654 62.4598C45.6625 59.4553 47.1639 59.7543 51.3328 53.8583C49.1307 53.1408 47.0492 52.2865 45.3493 50.6412ZM161.423 41.0049C158.157 41.2346 154.989 42.8677 153.419 45.5632C152.777 46.8297 152.422 48.0773 152.522 49.5051C155.39 48.5984 158.124 47.4654 160.717 45.9904C162.153 45.3321 165.185 43.7188 165.239 41.912C165.18 41.0723 162.237 40.9477 161.423 41.0049ZM51.9338 45.6126C51.2815 45.4131 50.4867 45.6117 49.9193 45.7535C49.4937 45.9807 48.926 46.1231 48.8405 46.7486C48.8412 47.2323 51.9338 48.889 53.2928 49.1396C53.6341 47.6045 53.5216 46.1823 51.9338 45.6126Z" fill="black"/>
<path d="M172.365 14.4835C173.168 14.2933 173.946 14.3064 174.699 14.5214C175.452 14.7363 175.977 15.0422 176.273 15.4399C176.626 15.7788 176.663 16.1822 176.385 16.65C176.164 17.1164 175.482 17.5352 174.339 17.9058C173.765 18.0334 172.794 18.4004 171.424 19.0066C170.113 19.6117 168.716 20.305 167.236 21.0868C165.754 21.8109 164.387 22.5617 163.137 23.3386C161.886 24.1155 161.093 24.7385 160.758 25.2074C160.421 25.6186 159.851 25.9191 159.049 26.1092C158.304 26.2982 157.557 26.3721 156.808 26.3303C156.115 26.2295 155.562 25.9814 155.151 25.5861C154.797 25.1895 154.814 24.6116 155.201 23.853C155.761 23.0906 156.779 22.2319 158.256 21.277C159.79 20.2632 161.44 19.3049 163.206 18.4016C165.028 17.4394 166.767 16.5939 168.422 15.8662C170.134 15.1373 171.448 14.6762 172.365 14.4835Z" fill="black"/>
</svg>
