<svg width="180" height="95" viewBox="0 0 180 95" fill="none" xmlns="http://www.w3.org/2000/svg">
<path d="M27.6987 0.923566C28.1403 0.18457 28.876 -0.110855 29.7589 0.0369758C30.6419 0.332706 31.3773 1.36724 31.0831 2.40218L30.2006 5.06387C30.0534 5.95104 29.6121 6.54287 29.9065 7.43004C30.7894 8.02116 31.6724 7.72557 32.7025 7.72557C41.0919 6.5427 49.4813 5.35998 58.0178 4.47281C64.3466 3.73352 70.8227 3.4372 77.1515 3.14148C77.8874 2.99363 78.4764 2.99365 79.0651 3.14148C80.0954 3.14148 81.126 3.14176 81.4204 4.32457C81.7148 5.21168 80.8315 6.099 79.2127 6.24696C77.1522 6.39482 74.9441 6.54248 72.8836 6.54249C60.5203 7.13393 48.304 8.61256 36.0879 10.239L29.7589 11.1266C28.2871 11.2744 27.2564 12.1614 26.6677 13.64C24.46 18.5194 22.3997 23.3993 20.9279 28.5744C18.573 36.5588 16.3648 44.691 14.1571 52.8233C14.01 53.5625 13.863 54.3023 13.863 55.1894C13.8631 55.6329 14.1579 56.076 14.7464 56.076C15.188 56.076 15.7768 56.0766 16.2183 55.9287C21.2224 55.0416 26.3741 54.3021 31.3783 53.267C33.5859 52.8235 35.7931 52.6749 37.7064 51.1964C38.2951 50.6049 39.1788 50.6053 39.7675 51.3446C40.5033 52.0839 40.5028 53.1192 39.9141 54.0063C38.8839 55.3368 37.4125 55.9285 35.7938 56.2243C30.7896 57.1114 25.7851 58.1461 20.6337 59.0332C18.5733 59.4768 16.5127 59.7724 14.4523 60.0681C12.8332 60.3638 11.9496 61.2515 11.6552 62.878C11.2137 64.9479 10.6249 67.0177 10.1834 68.9398C8.56437 76.0371 6.94575 83.135 5.17955 90.2323C5.03235 91.4152 4.59099 92.746 4.14947 93.9289C3.8551 94.8159 3.11889 95.1115 2.2359 94.9637C1.20562 94.8159 0.61689 93.9287 0.764071 92.7458C0.911254 92.0065 1.20524 91.2668 1.35242 90.3796L6.65138 66.8701C6.94574 65.9829 7.09255 65.2432 7.23973 64.5039C7.68116 62.2863 7.23986 61.8432 5.17955 61.8432C4.00209 61.991 2.67706 61.9905 1.35242 61.9905C0.61663 61.9903 0.175326 61.3988 0.0281569 60.8074C-0.118863 59.9203 0.322433 59.0334 1.05824 58.7377C2.38277 58.2942 3.85446 58.1462 5.32616 57.9984C8.12261 57.7027 9.44747 56.3719 10.1834 53.5626C11.6552 47.0567 13.4214 40.4027 15.3348 33.8968C16.9538 27.8345 19.0147 21.92 21.3697 16.1535C21.8112 15.1185 22.547 14.0835 22.1056 12.9007C20.7809 12.3093 19.6031 12.7529 18.2784 12.9007C13.863 13.9357 9.30041 15.119 4.73781 16.0062C3.70756 16.3019 2.52984 16.449 1.35242 16.449C1.20518 16.4487 0.911199 16.1535 0.764071 15.8579C0.764071 15.5622 0.763496 15.2661 0.910679 14.9704C1.35223 14.2312 2.08875 13.9361 2.97181 13.7883C8.41745 12.4575 13.8629 10.9781 19.3085 9.79524C25.3429 8.61237 24.3129 9.35189 26.6677 3.73351C26.962 2.69847 27.2572 1.81073 27.6987 0.923566Z" fill="black"/>
<path fill-rule="evenodd" clip-rule="evenodd" d="M88.3434 36.6155C88.7849 36.3198 89.227 36.1725 89.6686 36.4683C89.9629 36.7639 90.4039 37.2074 90.5511 37.5031C90.8455 39.1296 90 40 89.3744 41.6434C87.6796 46.0956 87.4982 47.6485 85.5848 53.7108C83.8187 59.1817 82.4944 64.6529 81.3169 70.1238C81.1699 70.8628 81.3164 71.454 81.1694 72.0452C82.494 72.6367 82.6414 71.6018 83.0829 71.0104C85.4378 66.8703 87.7924 62.5822 90.2945 58.4422C92.2079 55.3371 94.416 52.3802 97.0653 49.7187C97.9484 48.8316 98.9787 47.9446 100.009 47.2053C101.775 46.1703 103.541 46.9092 104.277 48.8312C105.013 50.4576 105.013 52.2321 104.866 54.0063C104.866 56.52 104.572 58.8863 104.424 61.2521C104.424 62.4347 104.571 63.6173 104.571 64.6522C104.571 65.2435 105.601 65.687 106.043 65.3915L108.84 62.7307C110.459 61.1043 112.078 59.477 113.697 57.9984C114.58 57.2592 115.463 56.6678 116.493 56.2243C118.407 55.4849 120.026 56.0768 120.909 57.8511C121.497 58.7383 121.645 59.6257 122.086 60.5128C122.528 61.3999 122.97 62.287 123.558 63.0263C124.588 64.2089 125.766 64.6523 127.384 64.0611C129.298 63.4697 130.917 62.435 132.389 61.2521C135.774 58.4428 139.012 55.6332 142.25 52.676C142.274 52.664 142.295 52.6484 142.317 52.6346C143.645 50.4601 145.224 48.4434 147.113 46.6133C149.321 44.5433 151.675 42.9166 154.619 42.473C158.299 41.8815 160.506 44.0998 160.212 47.7964C159.77 50.7534 158.446 53.415 156.533 55.4849C152.706 59.625 148.732 63.7646 142.698 64.5039C141.962 64.6518 141.667 65.2438 141.52 65.8352C141.079 67.6095 141.373 69.384 141.962 71.0104C142.551 73.6717 144.317 74.8548 146.966 74.4114C149.173 73.9678 151.234 73.0802 153.295 72.0452C157.121 69.9752 160.654 67.4611 163.892 64.5039C167.424 61.251 170.81 57.8503 174.342 54.5974C175.225 53.7103 176.108 52.8228 177.138 51.9357C177.874 51.3444 178.757 51.3446 179.346 51.9357C179.935 52.5271 180.229 53.2666 179.788 54.1536C179.493 54.745 179.051 55.1887 178.61 55.6322C173.9 60.5117 169.19 65.2438 163.892 69.5318C160.654 72.1931 157.122 74.5585 153.442 76.3328C151.087 77.3678 148.585 78.2552 145.936 78.2552C142.256 78.2552 139.459 76.3332 138.429 72.7845C137.84 71.1582 137.399 69.384 137.546 67.7576C137.403 65.312 137.956 63.146 138.528 61.1241L134.744 64.3566C133.125 65.6873 131.359 66.7223 129.446 67.6094C125.472 69.088 122.234 68.0534 119.879 64.5049C118.848 63.1741 118.848 61.3996 117.229 60.3646C114.58 61.8432 112.666 64.3572 110.458 66.4273C108.987 68.0536 107.515 69.8278 105.307 70.7149C103.982 71.4539 102.363 70.8624 101.627 69.5318C101.186 68.4969 100.892 67.4618 100.745 66.279C100.598 65.244 100.597 64.0609 100.597 62.878C100.744 60.6602 100.891 58.4421 100.891 56.2243C100.892 55.0413 101.774 53.1195 100.156 52.676C98.9785 52.3808 98.2428 54.154 97.507 55.0412C95.005 57.9983 92.9438 61.3993 91.0304 64.6522C88.6755 68.9401 86.3204 73.2285 83.9655 77.3686C83.0824 79.1429 82.1994 80.7693 80.7276 82.1C79.9917 82.8393 79.1084 83.135 78.0781 82.8393C77.0482 82.5434 76.4597 81.6562 76.4597 80.6214C76.4597 78.8471 76.4591 77.0726 76.6063 75.4462C77.4894 69.2361 78.8145 63.3217 80.4334 57.4073C80.6326 56.7072 80.8268 56.0222 81.018 55.3502C76.4597 57.0442 71.979 58.8415 66.9973 59.3297C64.3481 59.6254 64.348 59.7733 64.7895 62.2869C65.3781 65.244 64.9369 68.0535 63.7594 70.7149C62.7292 72.9327 61.4045 74.5593 59.344 75.89C54.6341 78.6993 48.8938 76.333 47.8635 70.8621C47.5692 69.6794 47.4222 68.3489 47.5693 67.0183C48.1581 60.956 50.5128 55.4846 54.4867 50.9009C55.6642 49.4223 56.9891 48.2395 58.608 47.6481C59.1968 47.3524 59.9329 47.2043 60.5216 47.2043C61.2573 47.3522 61.9927 47.7961 62.14 48.6829C62.2872 49.57 62.1403 50.4573 61.2575 50.6053C57.8723 51.1968 56.5475 53.7106 54.9285 56.2243C53.6038 58.59 52.5736 61.1041 51.9848 63.7656C51.5434 65.0962 51.3955 66.5747 51.3955 68.0532C51.3955 70.8623 52.4261 72.6363 54.3392 73.0801C56.1052 73.5236 58.313 72.489 59.4906 70.4193C61.4039 67.3143 61.9927 64.0612 59.9323 60.8083C59.3436 59.9212 58.902 58.8861 58.4605 57.8511C58.1661 56.8162 58.9022 55.7812 59.9323 55.6332H64.4954C66.8503 55.9289 69.7944 55.189 72.738 54.3019C75.387 53.267 78.183 52.3795 80.8321 51.3446L82.2847 50.9798C83.8818 45.6317 84.5 44 86.4308 39.4255C87.0195 38.3905 87.3132 37.207 88.3434 36.6155ZM156.238 47.6481C156.091 46.6133 155.503 46.3174 154.914 46.465C154.031 46.6129 153 47.0563 152.265 47.4999C149.886 49.0655 147.964 51.045 146.423 53.3094C146.397 53.7641 146.142 54.2371 145.636 54.7456C145.519 54.892 145.396 55.0375 145.269 55.1827C144.561 56.452 143.953 57.7912 143.434 59.1815C143.434 59.4771 143.581 59.9206 143.728 59.9208C144.022 60.0686 144.464 60.2159 144.611 60.0681C148.732 57.8502 152.559 55.1891 154.914 51.0491C155.65 49.8662 156.238 48.831 156.238 47.6481Z" fill="black"/>
<path d="M162.469 19.3899C163.195 19.2336 163.895 19.2595 164.569 19.4678C165.243 19.6762 165.71 19.9628 165.969 20.3275C166.28 20.6401 166.306 21.0052 166.047 21.422C165.839 21.8386 165.217 22.203 164.18 22.5155C163.661 22.6197 162.779 22.9331 161.534 23.4541C160.341 23.9754 156.454 25.8881 155.106 26.5654C153.757 27.1906 152.512 27.8422 151.372 28.5195C150.231 29.1968 149.505 29.744 149.193 30.1608C148.882 30.5254 148.363 30.7862 147.637 30.9425C146.963 31.0987 146.289 31.1505 145.615 31.0984C144.993 30.9942 144.5 30.7595 144.137 30.3947C143.826 30.0301 143.852 29.5094 144.215 28.8324C144.733 28.155 145.667 27.399 147.015 26.5654C148.416 25.6796 149.92 24.846 151.528 24.0644C153.187 23.2309 154.769 22.5015 156.273 21.8764C157.829 21.2511 161.639 19.5462 162.469 19.3899Z" fill="black"/>
</svg>
